<svg version="1" xmlns="http://www.w3.org/2000/svg" width="1066.667" height="1066.667" viewBox="0 0 800.000000 800.000000"><path d="M460.6 103.6c.1 2 .7 4 1.5 4.5 1 .6 1 .9.2.9-.7 0-1.2.3-1.1.7.1.5-.3 1.8-1 3-.8 1.5-.9 2.3-.2 2.3.5 0 1-.5 1-1.1 0-.5.5-.7 1.1-.3.7.4.8.9.1 1.3-.5.3-.8 1.8-.6 3.3.3 3.1-.4 3.5-2.6 1.5-.8-.6-.7-.3.3.9 1.9 2.3 2.3 3.9.7 2.9-.5-.3-1-.1-1 .4 0 .6.4 1.1.9 1.1s1.2.7 1.5 1.6c.3.8.2 1.3-.3 1-.5-.3-1.1.3-1.4 1.4-.3 1.1-.1 2 .4 2s.9-.5.9-1.1c0-.5.5-.7 1.1-.3.7.4.8.9.1 1.3-.5.3-.8 1.8-.6 3.3.3 3.1-.4 3.5-2.6 1.5-.8-.6-.7-.3.3.9 1.9 2.3 2.3 3.9.7 2.9-.5-.3-1-.1-1 .4 0 .6.5 1.1 1.1 1.1.6 0 .8.7.5 1.6-.3.8-.2 1.2.4.9.6-.3.7.1.4.9-.3.9-1 1.4-1.4 1.1-.5-.3-1.2-.1-1.5.5-.4.6-.1.9.6.8.7-.2 1.5.5 1.7 1.6.2 1.1 0 1.6-.7 1.2-.6-.4-1.1-.2-1.1.3 0 .6.7 1.1 1.5 1.1s1.5.5 1.5 1.1c0 .5-.6.7-1.2.4-.7-.4-.4.1.7 1s3 1.4 4.2 1.2c1.2-.2 2-.1 1.8.4-.3.4-.1 1 .5 1.4.5.3 1 .1 1-.5 0-.7.6-1 1.3-.7.6.2 2 0 2.9-.4 1.2-.7 2-.4 2.7.8.6 1 1.1 1.3 1.1.6 0-1.3 4-1.4 4 0 0 .4.5.5 1 .2.6-.4.8-1 .6-1.4-.3-.4.1-.8.9-.8s1.2.4.9.9c-.8 1.3 1 1 2.5-.5 1.1-1 1.3-1 .7 0-.4.7-.2 1.3.3 1.3.6 0 1.1-.5 1.1-1 0-.6.4-1 1-1 .5 0 .7.7.3 1.6-.5 1.4-.3 1.4 1.6.2 1.8-1.1 2.3-1.1 3 0 .7 1.1.9 1 1.5-.3.3-1 1.1-1.3 1.8-.9 2.1 1.3 5.9 1.4 5.2.1-.3-.7.2-.3 1 .7 1.4 1.7 2 1.6 1.8-.5-.1-.3.5-.6 1.3-.6s1.2.4.9.9c-.8 1.3 1 1 2.5-.5 1.1-1 1.3-1 .7 0-.4.7-.2 1.3.3 1.3.6 0 1.1-.5 1.1-1 0-.6.4-1 1-1 .5 0 .7.7.3 1.6-.5 1.4-.3 1.4 1.6.2 1.8-1.1 2.3-1.1 3 0 .7 1.1.9 1 1.5-.3.3-1 1.1-1.3 1.8-.9 2.1 1.3 5.9 1.4 5.2.1-.3-.7.2-.3 1 .7 1.4 1.7 2 1.6 1.8-.5-.1-.3.5-.6 1.3-.6s1.2.4.9.9c-.8 1.3 1 1 2.5-.5.9-.7 1.1-.7.8-.1-.4.7 0 1.4.8 1.7 1 .4 1.2.1.8-1-.5-1.2-.3-1.4.8-.7 2.3 1.4 5.1 1.6 4.3.2-.4-.7-.3-.8.5-.4 1.8 1.2 6.1 1.5 6.1.5 0-.5.4-.9 1-.9.5 0 .7.6.4 1.4-.4 1.1 0 1.3 1.5.9 1.2-.3 2.4-1 2.7-1.5.3-.5 1.5-.1 2.7.9 1.1 1 1.7 1.2 1.3.5-.6-1 .1-1.2 2.8-.9 2 .2 3.6 0 3.6-.4 0-.5.4-.9 1-.9.5 0 .7.6.4 1.4-.4 1.1 0 1.3 1.5.9 1.2-.3 2.4-1 2.7-1.5.3-.5 1.5-.1 2.7.9 1.1 1 1.7 1.2 1.3.5-.4-.7-.1-1.2.8-1.2s1.6.5 1.6 1.1c0 .5.5.7 1 .4.6-.4.8-1 .6-1.4-.3-.4.1-.8.9-.8s1.2.4.9.9c-.8 1.3 1 1 2.5-.5 1.1-1 1.3-1 .7 0-.4.7-.2 1.3.3 1.3.6 0 1.1-.5 1.1-1 0-.6.4-1 1-1 .5 0 .7.7.3 1.6-.5 1.4-.3 1.4 1.6.2 1.8-1.1 2.3-1.1 3 0 .7 1.1.9 1 1.5-.3.3-1 1.1-1.3 1.8-.9 2.1 1.3 5.9 1.4 5.2.1-.3-.7.2-.3 1 .7 1.4 1.7 2 1.6 1.8-.5-.1-.3.5-.6 1.3-.6s1.2.4.9.9c-.8 1.3 1 1 2.5-.5 1.1-1 1.3-1 .7 0-.4.7-.2 1.3.3 1.3.6 0 1.1-.5 1.1-1 0-.6.4-1 1-1 .5 0 .7.7.3 1.6-.5 1.4-.3 1.4 1.6.2 1.8-1.1 2.3-1.1 3 0 .7 1.1.9 1 1.5-.3.3-1 1.1-1.3 1.8-.9 2.1 1.3 5.9 1.4 5.2.1-.3-.7.2-.3 1 .7 1.4 1.7 2 1.6 1.8-.5-.1-.3.5-.6 1.3-.6s1.2.4.9.9c-.8 1.3 1 1 2.5-.5.9-.7 1.1-.7.8-.1-.4.7 0 1.4.8 1.7 1 .4 1.2.1.8-1-.5-1.2-.3-1.4.8-.7 1.9 1.2 5.1 1.6 4.5.6-.3-.5.5-.7 1.7-.6 1.2.1 2.2.3 2.2.4 0 .1 1.2.3 2.8.5 1.9.3 2.5 0 2.1-.8-.3-.7.2-.3 1 .7 1.4 1.7 2 1.6 1.8-.5-.1-.3.5-.6 1.3-.6s1.2.4.9.9c-.3.4-.1.8.5.8.5 0 1.3-.5 1.6-1 .4-.6 1.2-.7 1.8-.3.7.4 2.5.6 4.1.4 1.8-.2 2.6.1 2.2.8-.4.7-.1.8.8.5.9-.3 1.6-1.1 1.6-1.7 0-.5.9-.2 1.9.7 1.4 1.3 2.1 1.4 2.7.5.5-.8.3-1-.6-.4-.9.5-1.1.4-.6-.4.6-.9 1.1-.9 2.1-.1.9.8 1.5.8 2 0 .3-.6 1.2-.7 1.8-.3 2 1.2 5.8 1.3 5.1 0-.3-.7.2-.3 1 .7 1.4 1.7 2 1.6 1.8-.5-.1-.3.5-.6 1.3-.6s1.2.4.9.9c-.8 1.3 1 1 2.5-.5 1.1-1 1.3-1 .7 0-.4.7-.2 1.3.3 1.3.6 0 1.1-.5 1.1-1 0-.6.4-1 1-1 .5 0 .7.7.3 1.6-.5 1.4-.3 1.4 1.6.2 1.8-1.1 2.3-1.1 3 0 .7 1.1.9 1 1.5-.3.3-1 1.1-1.3 1.8-.9s2.6.9 4.3 1.1c2.2.2 2.6 0 1.5-.7-2-1.3-.4-1.3 2 0 1.3.7 2.1.7 2.5 0 .5-.8 1.1-.7 2.1.1.8.6 1.4.8 1.4.3s.5-.2 1 .6c.7 1.1 1 1.1 1 .2 0-1.7 4.3 2.3 4.6 4.4.1.8-.7 1.9-1.8 2.3-1.7.6-1.8.9-.6 1.4 1.2.4 1.4 1.4.8 4.6-.7 3.8.2 5.7 1.3 2.8.4-.9.6-.9.6.1.1.7-.5 1.5-1.3 1.8-.8.3-1.2 1.2-1 1.9.3.7 0 1.6-.5 2-.6.3-.8 1.2-.4 1.8.5.8.2.8-.9-.1-1.3-1.1-1.5-.8-1.2 1.8.2 1.6.6 4.1.8 5.5.3 1.4.1 2.3-.4 2-.4-.3-1 .2-1.3 1-.4.8-.1 1.2.6.9.8-.3 1.3.4 1.3 1.5s-.4 1.7-.8 1.5c-.4-.3-.8 0-.8.5 0 .6.6 1.1 1.3 1.1.8 0 .7.4-.3 1-.9.6-1.1 1-.3 1 .7 0 1 .7.6 1.7s-.2 1.4.4 1c.6-.4 1.3 0 1.6.8.4.9.1 1.2-.9.8-.7-.3-1.4 0-1.4.6s.3 1 .8 1c2.2-.4 2.7.5 2.4 4.6-.3 2.8-.8 4.3-1.5 3.8-.6-.3-.7-.1-.3.5.4.7 1.4 1.2 2.2 1.2.8 0 1.2.5.9 1-.4.6-1.1.7-1.7.4-.7-.5-.8-.1-.2.9 1.3 2.2.5 12.9-.8 12-.7-.3-.8-.1-.4.5.4.7 1.4 1.2 2.2 1.2.8 0 1.2.5.9 1-.4.6-1.1.7-1.7.4-.7-.5-.8-.1-.2.9 1.3 2.2.5 12.9-.8 12-.7-.3-.8-.1-.4.5.4.7 1.4 1.2 2.2 1.2.8 0 1.2.5.9 1-.4.6-1.1.7-1.7.4-.7-.5-.8-.1-.2.9 1.3 2.2.5 12.9-.8 12-.7-.3-.8-.1-.4.5.4.7 1.4 1.2 2.2 1.2.8 0 1.2.5.9 1-.4.6-1.1.7-1.7.4-.7-.5-.8-.1-.2.9 1.3 2.2.5 12.9-.8 12-.7-.3-.8-.1-.4.5.4.7 1.4 1.2 2.2 1.2.8 0 1.2.5.9 1-.4.6-1.1.7-1.7.4-.7-.5-.8-.1-.2.9 1.3 2.2.5 12.9-.8 12-.7-.3-.8-.1-.4.5.4.7 1.4 1.2 2.2 1.2.8 0 1.2.5.9 1-.4.6-1.1.7-1.7.4-.7-.5-.8-.1-.2.9 1.3 2.2.5 12.9-.8 12-.7-.3-.8-.1-.4.5.4.7 1.4 1.2 2.2 1.2.8 0 1.2.5.9 1-.4.6-1.1.7-1.7.4-.7-.5-.7-.1-.1 1.1.6.9.7 3.5.3 5.6-.5 2.4-.3 4.2.3 4.6.5.3.7.1.3-.5-.3-.6-.2-1.3.3-1.6.5-.4.8.2.6 1.1-.1 1-1 1.7-1.8 1.7-1.3-.1-1.4.2-.6 1.8.6 1.1.8 2.6.5 3.5-.4 1-.2 1.3.7 1 .8-.3 1.4.1 1.4.9 0 .7-.4 1.1-.8.9-.4-.3-.9.2-1.3 1-.3.9 0 1.5 1 1.5.8 0 1.2.5.9 1-.4.6-1.2.7-1.8.3-.7-.4-.4.6.7 2.1 1 1.6 1.3 2.5.7 2.2-.6-.4-1.1 0-1.1.9 0 1-.5 1.3-1.2.9-.9-.6-.9-.3 0 .9.8.9 1.1 2.1.7 2.7-.3.5.1 1 1 1s1.4.4 1 1c-.3.5-1.3.7-2.3.4-1.1-.4-1-.1.4.8 1.2.7 1.9 1.9 1.6 2.7-.3.9 0 1.1.7.7.7-.4 1.9-.2 2.8.6 1.5 1.1 1.6 1.1.9-.6-.7-2-.7-2 1.5 0 1.2 1 1.9 1.3 1.5.6-.4-.6-.3-1.2.3-1.2.5 0 1.2.6 1.4 1.2.4 1 .6.9.6-.1.1-1.1.4-1.1 1.6-.1 1.2 1 1.5 1 1.5 0 0-.9.4-.9 1.7.1 1.1 1 1.4 1 .9.1-.4-.6-.3-1.2.3-1.2.5 0 1.3.5 1.7 1.1.4.8.9.7 1.5-.2.8-1.2 1.1-1.1 1.9.1.8 1.2 1 1.2 1 .1 0-1.1.3-1.1 1.5-.1s1.5 1 1.5 0c0-.9.4-.9 1.7.1 1.1 1 1.4 1 .9.1-.4-.6-.3-1.2.3-1.2.5 0 1.3.5 1.7 1.1.4.8.9.7 1.5-.2.8-1.2 1.1-1.1 1.9.1.8 1.2 1 1.2 1 .1 0-1.1.3-1.1 1.5-.1s1.5 1 1.5 0c0-.9.4-.9 1.7.1.9.8 1.4.9 1.1.4-.4-.6 2-1 6.3-1 3.8 0 6.9.3 6.9.6 0 .4 1.8.3 4-.1s4-.4 4 0 1.8.4 4 0 4-.4 4 0 1.8.4 4 0 4-.4 4 0 1.1.5 2.5.2l2.5-.4V100H460.5l.1 3.6zm258.2 222.9c-.3.3-.9-.2-1.2-1.2-.6-1.4-.5-1.5.5-.6.7.7 1 1.5.7 1.8zM70.9 108.7c-1.2 1.5-1.2 1.6.1.8 1.2-.7 1.3-.6.3.7-.7.8-1 1.8-.6 2.1.3.4.4.7.1.7-.3 0-1.2-.8-1.9-1.7-1.2-1.4-1.2-1.6 0-.8 1 .5 1.2.4.7-.4-.6-.9-1.1-.9-2.4.1-1.3 1.1-1.4 1.1-.8-.1.6-.9.5-1.2-.5-.9-.8.3-1.3 1.2-1.1 1.9.1.8-.4.5-1.3-.5-1.4-1.9-2.1-1.1-1.5 1.9.1.5-.4.4-1.1-.3-2.1-1.9-5.5-1.4-6.7 1-.6 1.3-1.1 1.7-1.1 1-.1-1.5-3.1-1.6-3.1-.1 0 .5.6.7 1.3.3.8-.5.8-.2-.2.9-.7.9-1.7 1.7-2.2 1.7-1.9 0-8.8 5.3-8.2 6.3.4.6.1.7-.8.1-1.9-1.2-3.1-1.2-5.4 0-1.1.6-2.4.9-2.8.8-.5-.1-.6.2-.2.8.4.6 1.4.5 2.8-.5 1.6-1 2.6-1.1 3.7-.4 1.3.9 1.3 1-.1.6-.9-.3-2.6.1-3.8 1-1.7 1.1-2.5 1.2-3.6.3-1-.8-1.5-.8-2.1.1-.4.7-.3 1 .2.7.5-.3 1.5.1 2.3.9 1.2 1.3 1.1 1.4-.7.8-1.8-.5-2.1-.3-1.6 1.2.3 1-.1.7-1-.7-1.5-2.4-1.5-2.4-1.1 1.9.3 2.4.2 4.1-.1 3.8-.5-.5-1.1-2.7-1.4-5.2 0-.6-.5-.2-1.1.8-.6.9-1.5 1.4-2.1 1.1-.7-.4-.8-.2-.4.5.4.6 1.1.9 1.6.6.9-.6 2.1 2 1.3 2.9-.3.3-1.4.1-2.4-.4-1.5-.8-1.7-.7-1.4 1 .2 1.1 0 2-.6 2-.5 0-.9-.8-.9-1.8-.1-1.6-.1-1.6-1.1.1-.6.9-1.3 1.6-1.7 1.4-.4-.1-2.2 1.1-4 2.9-2 1.9-2.7 3.1-1.8 3.1.8 0 1.2-.5.9-1.1-.3-.6-.3-.8.2-.4.4.4 1.4 0 2.1-1 .7-.9 1.4-1.2 1.4-.6s-.7 1.7-1.5 2.4-1.2 1.7-.8 2.4c.4.7.1.6-.9-.1-.8-.7-1.8-1-2.1-.6-.4.3-1.2.1-2-.5-1.1-.9-1.3-.3-1.1 3.1.1 2.3.2 4.3.4 4.4.1.2.3.7.4 1.2 0 .6.7 1.6 1.5 2.3 1 .9 1.2.9.7.1-.5-1-.1-1.1 1.6-.4 1.4.5 2.3 1.6 2.2 2.8-.1 1.1.5 2 1.2 2s1.1-.5.8-1.1c-.3-.6.1-.3.9.6.8 1 1.7 1.5 2.1 1.1.4-.4.4.1 0 1.1-.5 1.3-.4 1.7.4 1.2.7-.4 1.8-.3 2.6.1 1.4.8 1.6 1.1 1.6 3.5 0 .9.4.8 1-.2.7-1.1 1-1.1 1-.2 0 .7.4 1.1.9.8 1.3-.8 2.1 1.9 1 3.3-.6.8-.5.8.3.1 1.7-1.4 3.1-1.2 2.5.3-.4 1 .2 1.3 1.7 1 1.6-.3 2.5.1 3 1.3.6 1.5.4 1.5-1.1.3-1.6-1.3-1.7-1.2-.4.4.8 1 2 1.6 2.8 1.3.7-.3 1.3-.1 1.3.5s.4.7 1 .4c.5-.3 1-.1 1 .5s.5.8 1.3.4c.7-.5.6 0-.3 1.1-.8 1-1 1.6-.3 1.2.6-.4 1.5-.2 1.9.4.4.8.9.7 1.6-.2.8-1.1.9-1 .4.3-.3 1.1 0 1.8.7 1.8.8 0 .6.4-.3 1-.9.6-1 1-.3 1 .6 0 1.5-.5 1.8-1 .4-.6 1.2-.5 2.1.4 1.7 1.7 1.9 3 .2 2-.7-.4-.8-.3-.4.4.4.6 1.3.9 2.1.5 1-.3 1.5.2 1.5 1.6 0 1.2.5 2.1 1.1 2.1.5 0 .7-.5.4-1-.3-.6-.1-1 .4-1 .6 0 1.1.5 1.1 1.1 0 .6.7.9 1.5.5.8-.3 1.4 0 1.2.6-.1.7.5 1.2 1.3 1.3.8 0 1.4.8 1.4 1.8-.1 1.3.3 1.6 1.7 1.2 1.4-.5 1.7-.2 1.4 1.5-.4 1.9-.2 2 1.2.8 1.2-.9 1.5-.9.9-.1-.4.8-.1 1.3.9 1.3s1.3.5.9 1.2c-.6 1-.4 1 .8 0 1.4-1.1 1.7-1 2 .9.2 1.2 1.4 2.8 2.8 3.7l2.5 1.4-2.5-2c-1.4-1.1-2.1-2.4-1.7-2.8.4-.4.7-.2.7.4 0 .6.9 1.4 2 1.7 1.1.4 2 1.5 2 2.7 0 1.2.5 1.8 1.3 1.5.7-.3 2.1.1 3.2.9 1 .8 1.4 1.4.9 1.4-.6 0-1.4-.3-2-.8-.5-.4-.4-.1.2.6.6.7 2 1.4 3.2 1.5 1.2.1 2.2.5 2.2 1s.7.6 1.6.3c1.4-.5 1.5-.4.4.9-.9 1.1-.9 1.5-.1 1.5.7 0 1 .4.7.9-.3.5.2.8 1.2.7.9 0 1.6.5 1.5 1.1-.2.7.2 1.3.7 1.3.6 0 1-.8 1.1-1.8 0-1.1.4-.7 1.1 1 .5 1.6 1.4 2.8 1.9 2.8.6 0 .7-.4.4-1-.3-.6.1-.7 1-.4 1.4.6 1.4.8-.2 1.9-1.6 1.2-1.4 1.3 1.5 1.1 1.8-.1 3.6.2 3.9.7.3.6.1.7-.5.3-.7-.4-1.2-.2-1.2.5 0 .6.8.9 1.9.6 1.5-.3 1.8-.1 1.4 1.1-.4 1-.2 1.3.5.8.8-.5 1-.1.5 1.1-.3 1-.3 1.5.1 1.1.9-.8 6.2 4.2 5.8 5.5-.1.5.2.5.8.2.8-.5.5-1.4-.7-2.8l-1.8-2.1 2.7 2c1.5 1 2.6 2.4 2.3 3.1-.2.7.2 1 1.1.6.9-.3 1.4 0 1.2.8-.2.7.6 1.3 1.7 1.4 3 .1 4.5 1.4 4.5 3.8 0 2 0 2 1.6.1.8-1 1.3-1.4 1-.8-.3.7.1 1.7.9 2.4s1.2 1.7.8 2.4c-.4.7-.2.7.8-.1 1.2-1 1.8-.9 3.1.7.9 1 1.3 2.2 1 2.6-.4.4-.2.4.5 0 .6-.3 2.2.4 3.5 1.6 1.3 1.3 1.6 1.7.6.9-1-.8-1.8-1.1-1.8-.6 0 .4.8 1.4 1.7 2.1 1.4.9 2.1 1 3.2.1 1.2-1 1.4-.9.8.6-.4 1.1-.3 1.6.3 1.2.6-.3 1.3.1 1.6 1 .4.9 1.3 1.4 2 1.1.7-.3 1.7.1 2.1.8.5.7 1.6 1.5 2.6 1.9.9.3 1.7 1.6 1.7 2.7 0 1.2.5 1.8 1 1.5.6-.3 1-.1 1 .4 0 .6.6 1 1.3.8.6-.1 1.2.5 1.1 1.4-.1 1 .6 1.5 2 1.4 1.2-.1 2.7.5 3.4 1.4 1.1 1.3 1.2 1.3.7.1-.4-1-.2-.9.8.2.8 1 1.7 1.4 2.1 1 .4-.4.6 0 .4.8-.1.8.3 1.4 1 1.2.6-.1 1.1.1 1.1.5-.1.5-.1 1.5 0 2.3.1 1.2.5 1.1 1.8-.5s1.5-1.7 1-.3c-.4 1.2-.1 1.8.9 1.8.9 0 1.2.5.8 1.2-.5.7-.2.9.7.6.8-.3 2.3 0 3.4.8 1 .8 1.4 1.4.9 1.4-.6 0-1.6-.6-2.4-1.3-1.2-1-1.2-.9-.1.5.7 1 2.1 1.8 3.1 1.8s2.1.7 2.4 1.6c.5 1.4.4 1.5-.9.4-2.6-2.1-1.6-.5 1.1 1.9l2.6 2.2-.7-2.3-.6-2.3 1.4 2.4c1.1 1.8 1.6 2 2 1 .4-1 .6-.9.6.4.1 1 .6 1.5 1.1 1.2.9-.6 1.5.8 1.1 2.9-.1.5.6.3 1.5-.5 1.6-1.2 1.7-1.2 1.1.3-.4 1.3-.1 1.6 1.3 1.3 1.1-.2 1.9-.1 1.9.3-.1.4-.1 1.4 0 2.2.1 1.3.2 1.3 1.1 0 .8-1.2 1-1.1 1 .7 0 1.3.5 2.3 1.1 2.3.5 0 .7-.4.4-1-.3-.5 0-.7.9-.4.9.3 1.2 1.2.8 2.2-.5 1.5-.4 1.5 1.2.3 1.4-1.2 1.7-1.2 1.4-.1-.2.8.3 1.5 1 1.6.6.1 1.7.2 2.2.3.6 0 1 .6 1 1.2 0 .8-.4.8-1.4 0-1.1-.9-1.6-.9-2.2 0-.4.7-.3.9.4.5.6-.3 1.3-.2 1.7.4.4.6 1 .8 1.5.5.5-.3 1.1-.1 1.5.5.4.6 1.2.7 1.8.3.7-.4.5.2-.3 1.2-.9 1.1-1 1.6-.3 1.1.7-.4 1.3-.3 1.3.3s1.1 1.3 2.4 1.7c1.4.3 2.3 1.1 2 1.8-.3.7.2 1.3 1 1.3s1.2-.7.9-1.6c-.3-1.2-.2-1.2.7.2.6.9.8 2.2.5 2.7-.9 1.4.8 1.3 2.3-.2.9-.9 1.1-.6.7 1.1-.4 1.9-.2 2.1 1.1 1 1.2-1 1.3-.9.9.4-.4.8-.1 1.8.6 2.3.7.4 1 .3.6-.3-.3-.5 0-1 .7-1 .8 0 1.2.6.9 1.3-.5 1.4 3 3.7 4.1 2.7.3-.3.6-.1.6.7 0 .9.3 1 1.4.1 1.1-.9 1.3-.6 1 1.5-.1 1.4 0 2.3.3 2 .3-.3 1.3.3 2.2 1.2.9 1 1.2 1.3.8.6-.5-.7-.3-1.5.4-2 .7-.4 1-.3.7.2-.3.5 0 1.5.8 2.2.8.7 1.4 1 1.4.6 0-.3.7-.1 1.5.6.9.7 1.4 1.9 1.1 2.7-.3.8-.2 1.1.3.8.5-.3 1.2-.1 1.6.5.4.6 1.1.8 1.6.5.5-.4.9-.1.9.5s.4.9.9.6c.5-.3 1.2.5 1.5 1.9.4 1.6 1.1 2.2 2.1 1.9 1.3-.5 1.9.5 1.7 2.7-.1.3.9.5 2.1.5 1.6-.1 2.1.4 1.9 1.9-.2 1.2 0 1.6.5.9.9-1.3 5.3 0 5.3 1.6 0 .5.8 1 1.8 1 1.4 0 1.5.2.2 1-1.2.8-1 1 .8 1 1.5 0 2.1.4 1.6 1.2-.5.8-.2.9.9.5.9-.3 1.9-.1 2.3.5.4.6.3.8-.4.4-.6-.3-1.3-.3-1.6.2-.2.4.4.9 1.5.9 2.4.2 5.1 2.8 4.1 3.9-.4.5.2.2 1.2-.6 1.3-1 1.7-1 1.2-.3-.7 1.2 1.1 1.8 3.7 1.4.5-.1.6.3.3.8-.4.5 0 1.6.8 2.4.8.8 1.2 1.8.8 2.3-.4.5 0 .3.9-.4 1.9-1.4 3-.6 2.2 1.6-.4 1-.2 1.3.5.8 1.1-.7 1.7.6 1.3 2.7-.1.5.3.6.9.2.6-.3.8-1.1.5-1.6-.4-.5-.2-.9.3-.9.6 0 1.3.7 1.6 1.6.4.9 1.3 1.4 2.1 1 .8-.3 1.6 0 1.7.7 0 .7.2 1.6.3 2.2.2.5.3 1.4.4 1.9 0 .5.9.2 1.8-.5 1.5-1.2 1.6-1.2 1 .4-.5 1.3-.2 1.7 1 1.5 1-.2 1.8.4 1.8 1.2.1.8.6 1.4 1.3 1.3.7-.2 1.2.2 1.2.9 0 .6.3.9.6.5.9-.9 3.3 1.6 2.6 2.8-.3.5.3.3 1.3-.5 1.1-.9 1.6-1 1.1-.3-.4.8-.2 1.3.7 1.3 1.6 0 5.8 4.6 5 5.4-.4.3.1.6 1 .6.8 0 1.7.5 1.9 1.1.2.6 1.5 1.2 2.8 1.3 1.5 0 2.5.7 2.5 1.6.1.8.7 1.4 1.4 1.2.9-.2 1.1.3.7 1.3-.5 1.3-.2 1.4 1.7.4 2.1-1.2 2.1-1.1.7.6-.9 1.1-1 1.6-.3 1.1.7-.4 1.3-.2 1.3.3 0 .6.8 1.1 1.8 1.1 1.8.1 6.3 3 4.6 3-.5 0-.1.5.9 1.1.9.5 2.3.7 3 .3.9-.6.9-.5 0 .8-1.6 1.8-.5 3.2 1.3 1.7 1-.8 1.2-.6.9 1.1-.4 1.9-.2 2 1.2.8 1.5-1.1 1.6-1 1.1 1-.5 1.9-.4 2.1.8 1.1 1.1-.9 1.4-.9 1.4 0 0 .7.4.9 1 .6.6-.4.7.1.3 1.2-.6 1.5-.4 1.6.9.6 1.8-1.5 2.9-.7 2.1 1.5-.4 1-.2 1.3.5.8.7-.4 1.2-.3 1.2.3 0 .5.9 1.3 2.1 1.6 1.5.5 1.7 1 .9 2-.9 1.1-.7 1.2.9.8 1.3-.3 2.1-.1 2.1.7 0 1 .3 1 1.5 0 .9-.7 1.8-1 2.2-.6.3.3.1.6-.5.6s-.9.7-.6 1.5c.4.8 1.3 1.5 2.1 1.5s1.2.4.9.9c-.3.5.1 1.1.9 1.4 1 .4 1.2.1.9-1.1-.3-.9.2-.5 1.1 1 1.8 3.2 2.7 3.7 1.8 1-.5-1.4-.3-1.4 1 .3.8 1 1.2 2.6.9 3.5-.5 1.2-.3 1.3.9.3 1.1-.9 1.8-.8 3.3.3 1 .7 2.3 1.1 2.7.8.5-.3.6.2.2 1.1-.5 1.3-.7 1.4-1.4.3-.5-.7-.9-.8-.9-.2 0 1.9 1.3 2.4 2.8 1.1 1.1-.8 1.4-.8.9 0-.4.7.1 1.4 1.3 1.8 1.1.3 2.9 1.9 4 3.6 2.3 3.1 6.8 6.3 5.5 3.7-.3-.7-.1-.6.7.3.7.9 2 1.4 2.8 1.1 1.3-.5 1.3-.3 0 1.4-.8 1-1 1.6-.6 1.2.5-.5 1.5.1 2.3 1.1.8 1.2 2 1.7 3.2 1.4 1.5-.4 2 .1 2.3 1.9.2 1.6.9 2.2 2.2 2 1-.2 1.5.1 1.2.6-.3.5.2.9 1.2.8 1.1-.1 1.6.6 1.5 1.8-.1 1.3.2 1.5 1 .7.7-.7 1.4-.4 2.2 1.2.7 1.5 1.9 2.2 3.8 2.1 1.4-.1 2.4.3 2.1.8-.3.4-1 .5-1.6.2-.7-.4-.8-.2-.4.4.4.7 1.7 1.2 2.9 1.2 1.8 0 1.9.2.7 1-1.3.9-1.3 1 .1 1 .8 0 3.2.8 5.2 1.8 3.1 1.5 3.5 2 2.5 3.1-1.1 1.1-1 1.2.1.6s1.3-.4.7 1.1c-.5 1.5-.4 1.6.5.7 1.5-1.5 3.9-.6 3.9 1.6 0 1.4.2 1.4 1.1.1.9-1.2 1-1 .6.8-.5 1.9-.3 2.1.9 1.1 1.1-.9 1.4-.9 1.4 0 0 .7.5.9 1 .6.6-.3 1 .1 1 1 0 1.1.5 1.5 1.6 1.1.8-.3 1.2-.2.9.4-.6.9.8 1.4 2.8 1.1.5-.1.5.3.2.9-.4.6-1.3.9-2.1.6-2.5-1-1.5.2 1.4 1.7 1.6.7 3.8 1.3 5 1.2 1.6-.1 1.9.2 1.2.9-1.6 1.6-1.2 2.3 1.3 2.2 1.2-.1 2.1.4 2 1-.1.6.8 1.1 2 1 1.2 0 2.1.4 2 1.1-.2.6.6 1.5 1.7 1.8 1.1.4 1.8 1.1 1.5 1.6-.4.5.3.9 1.5.9s1.8.4 1.5 1c-.3.5-.1 1 .4 1 .6 0 1.1.6 1.1 1.4 0 .9.8 1.2 2.6.8 1.9-.3 2.5-.1 2 .7-.4.6-.1 1.1.9 1.1.9 0 1.3.4 1 1-.3.5-.2 1 .4 1 .5 0 1.3.9 1.6 2.1.6 1.7.9 1.8 2.3.7 1.3-1.1 1.5-1.1.9.4-.4 1.2-.2 1.5.9 1.1.8-.3 1.4.1 1.4.9 0 1.6 4 3.8 6.7 3.8 1.4 0 1.4.2-.2 1.4-1.8 1.3-1.8 1.4.8.9 1.7-.3 2.7-.1 2.7.6s-.4.9-1 .6c-.5-.3-1-.1-1 .4 0 1.5 1.3 1.4 2.9-.2 1-.8 1.2-.8.7 0-.7 1.2 4.1 6.4 5.9 6.2.5 0 .4-.3-.2-.6-.7-.2-1.3-.9-1.3-1.5s.8-.4 1.8.5c1 1 2.2 1.4 2.6 1 .4-.4.4.1 0 1.1-.5 1.4-.4 1.7.4 1.2.7-.4 1.2-.3 1.2.1 0 .5.7 1.8 1.5 2.9 1.5 1.9 1.5 1.9.9-.1-.5-1.6-.4-1.7.5-.5.6.8 1.1 2.4 1.2 3.5.1 1.7.2 1.6.9-.5.6-1.8.8-2 .9-.7.1 1 .5 1.5 1.1 1.2.5-.3 1 .2 1 1.2 0 1.5.2 1.6 1.1.3.9-1.2 1-1.1.6.7-.3 1.6-.1 2 1 1.6.8-.3 2.1.4 2.9 1.6.8 1.1 2.2 2.1 3 2.1.8 0 1.4.6 1.4 1.4 0 .8 1.5 1.9 3.3 2.5 2.3.9 2.8 1.4 1.8 2-.8.5-.9 1.1-.3 1.5.6.3 1.3 0 1.5-.6.4-1 .8-1 1.5.1.8 1.1 1 1.1 1.5 0 .3-.8.6-.3.6 1.1.1 2 .3 2.2 1.1 1 .8-1.3 1-1.2 1 .3 0 1.2.4 1.6 1.3 1.1.8-.5.7-.2-.2.9-.8 1-1.1 2-.7 2.4.3.3.6.1.6-.5 0-.7.7-1.2 1.6-1.2.8 0 1.3.4 1 .9-.7 1.1 2.2 2.3 3.6 1.4.7-.3.8-.1.4.5-.6 1.1.6 1.7 2.7 1.3.4-.1.3.8-.3 2-1.1 1.9-1 2 1 .9 1.8-1 2.1-.9 1.5.1-.6.9-.3 1.1 1.1.6 1.8-.7 1.8-.6-.1.9l-2 1.6 2-.4c1.2-.2 1.9.2 1.7 1-.2 1 .2 1 1.9.1 1.2-.6 1.9-.7 1.6-.2-.6 1 1.9 3.4 2.7 2.6.3-.4.6.2.6 1.3 0 1.6.2 1.7 1 .4.8-1.2 1-1 1 .9 0 1.8.4 2.2 2 1.8 1-.3 1.9-.2 1.8.2-.3 2.7.3 3.3 1.6 1.6 1.3-1.8 1.4-1.7 1.1.7-.2 2 .1 2.5 1.1 2.1.9-.3 1.4 0 1.2.8-.2.9.4 1.3 1.5 1.1 1-.2 1.7.3 1.7 1.2 0 1 .6 1.3 1.5 1 .8-.4 1.5-.1 1.5.6 0 .9.3 1 1.3.1 1-.8 1.4-.7 1.4.4 0 .8-.4 1.2-.9.9-.4-.3-.8 0-.8.5 0 1 .7 1.3 2.6 1 .4 0 1 .5 1.5 1.3.5.7 1.3 1.3 1.8 1.3s2.3 1.2 3.9 2.7c1.7 1.4 3.3 2.4 3.6 2.1.3-.4.6-.1.6.6 0 2 2.7 4.3 3.3 2.8.3-.7.6-.4.6.6.1 1 .6 1.5 1.1 1.2.6-.3 1 .1 1 .9s.9 1.8 2 2.1c1.1.4 1.7 1.1 1.4 1.7-.4.6.1.6 1.4-.1 1.7-.9 2.2-.8 2.7.9.4 1.1 1.1 1.8 1.6 1.5.5-.4.9-.1.9.5s.6.8 1.3.5c.6-.4.3.1-.8 1-2 1.7-2 1.7.5 1 1.4-.4 2.2-.4 1.8 0-1 1.1 2.9 3.8 4.2 3 .6-.3 1 .1 1 .9 0 .9.5 1.7 1 1.7 1.1.2 2.5.5 3.8.9.4.1 1.1.2 1.5.1.5-.1.6.3.2.9-.5.8-1.1.8-2 0-1-.8-1.5-.8-2.1.1-.4.7-.3.9.4.5.6-.3 1.3-.2 1.7.4.4.6 1 .8 1.5.5.4-.3 1.5.6 2.4 2 1.6 2.4 4.5 3.7 3 1.3-.4-.7-.3-.8.5-.4.9.6.9 1.1 0 2.2-1 1.2-.9 1.3.5.8 1.5-.6 2.1.5 1.7 2.9-.1.5.3.6.9.2.6-.3.8-1 .6-1.4-.3-.4.1-.8.9-.8s1.2.4.9.9c-.3.4.2.8 1 .8 1.5 0 2.1 1.2 1.7 3.4-.1.5.4.4 1.2-.2 1.8-1.5 3-.3 1.5 1.5-1 1.2-.8 1.4.8 1.1 1.2-.2 1.8.2 1.6 1.1-.3 1.2 0 1.2 1.2.1 1.2-.9 1.6-.9 1.6-.1 0 .7.4.9 1 .6.6-.3.7.1.4.9-.4 1.1 0 1.6 1.1 1.6 1 0 1.3.4.9 1.2-.5.8-.2.8 1-.1.9-.8 1.6-1 1.5-.5-.3 2 .2 3.5 1 2.9.5-.3 1.7.5 2.5 1.7.9 1.2 1.6 1.8 1.6 1.3.1-.6.8.1 1.6 1.5s1.3 1.7 1 .7c-.7-2.3-.5-2.2 3.7 1.2 2 1.5 3.3 3.2 2.9 3.6-.4.4.3.5 1.6.2 2-.5 2.2-.3 1 1.1-.7.9-.8 1.3-.3 1 .6-.4 1.7-.3 2.5.3 1.3.7 1.3.9 0 .9s-1.3.1 0 1c2 1.3 3.3 1.2 2.4-.2-.4-.7-.3-.8.5-.4.6.4.8 1.2.5 1.8-.5.8-.1.9 1.1.4 1.5-.5 1.6-.4.5.9-.7.9-.9 1.5-.4 1.4 2.2-.4 3.5.2 2.8 1.3-.6 1-.4 1 .7.1.7-.7 1.8-1.3 2.4-1.3.5 0 .3.5-.5 1-1.3.8-1.3 1.1-.1 2.2 1 1 1.2 1 .7 0-.4-.6-.3-1.2.3-1.2.5 0 1.3.9 1.6 2 .3 1.1 1.3 2 2.1 2s1.3.4.9.9c-.3.5-.1 1.2.5 1.6.5.3 1-.2 1.1-1.2 0-1.4.2-1.3 1 .5.5 1.3.6 2.9.2 3.4-.4.7-.1.8.6.4.7-.5 1-1.4.7-2.2-.3-.8-.1-1.4.4-1.4.6 0 1 .7 1 1.6 0 .9.5 1.2 1.3.8.9-.6.9-.4-.1.8-1 1.3-1 1.8-.1 2.4.8.4.9.3.5-.4s-.1-1.2.9-1.2c.9 0 1.3.4 1 1-.5.9 2.3 1.5 4.8 1.1.4 0 .7.2.6.6-.1.5.2 1.9.6 3.1.6 1.8 1 2 1.6 1 .7-1 .9-.8.9.6 0 1.5.3 1.6 1.5.6s1.4-.8 1 .9c-.2 1.2 0 1.9.6 1.6.5-.4.9-.1.9.5s.5.8 1 .5c.6-.3 1-.2 1 .4 0 .5.9 1.3 2 1.6 1.1.4 1.8 1.1 1.5 1.6-.4.5.1.9 1 .9 1.8 0 4.7 2.5 3.9 3.3-.3.2.2.7 1.1 1.1 1.1.4 1.4.2 1-.7-.4-.6.2-.1 1.3 1.3 1.1 1.3 1.8 2.9 1.5 3.4-.3.5-.1.6.6.2.6-.4.9-1.1.6-1.6-.3-.5-.1-1.2.5-1.5.6-.4 1-.3.9.2-.1.4-.1 1.6 0 2.7.1 1.6.3 1.7 1.8.5.9-.8 1.4-.9 1-.3-.3.6.1 2.1.9 3.3 1.5 2.1 1.7 2.1 3 .4.8-1 1.4-1.4 1.3-.8-.3 2.1.3 4.9.8 3.8.6-1.6 2.1-.2 4.1 3.8 1.3 2.4 2.6 2.8 6.7 1.9.6-.1 1.2-.1 1.5 0 1.7.7 7.2.7 6.1.1-1.1-.7-1.1-1.3-.1-2.7 1-1.6 1.1-1.6.6-.2-.7 2.2 1.2 2.4 2 .3.4-.8 1.1-1.2 1.8-.8.7.4.7.1-.1-.9-1.7-1.9-.4-3.2 1.5-1.5 1.3.9 1.4.9.8-.1-.4-.6-.2-1.3.3-1.3.6-.1 1.6-.3 2.1-.4.6-.1 1.4-.3 1.9-.4.5 0 1.3-1 1.6-2.1.4-1.1 1.1-1.7 1.7-1.4.7.5.9.2.5-.8-.4-1.2 0-1.4 1.6-1 1.9.5 2 .3.9-1-1.1-1.4-1-1.6.8-1.1 1.1.3 2 .2 1.9-.3-.1-.5-.1-1.6 0-2.4.1-1.2.3-1.2 1-.2.7 1.1 1.2 1.2 2.9.1 1.7-1.1 1.9-1.6.9-2.8-1-1.2-.9-1.3 1-.3 1.9 1.1 2.1 1 1.8-.8-.2-1.1.1-2.3.7-2.6.7-.4.8-.2.4.4-.4.7-.2 1.2.4 1.2.6 0 .8.5.4 1.2-.4.6-.3.8.4.4.6-.3.9-1.5.7-2.6-.3-1.7-.1-1.8 1.5-1 1.5.8 1.7.7 1.3-1-.3-1.2 0-2 .6-2 .7 0 .9.6.5 1.2-.4.8-.3 1 .2.5s.9-1.4.9-2c0-.7.9-1.1 1.9-.9 1.3.2 1.6-.1 1-1-.6-1.1-.5-1.1.8 0 1.4 1.1 1.6 1 1.4-1.2-.2-1.4 0-2.3.5-2.1.4.3 1.1 0 1.4-.6.4-.5 1.3-.8 2.1-.5.8.3 1.3.2 1.3-.2-.4-2.2.2-4.2 1.1-3.7.6.3 1 .1 1-.5s.5-.8 1.3-.4c.7.5.6 0-.3-1.1-1-1.3-1.1-1.6-.2-1.1 1 .6 1.3.3 1.2-1-.1-1.1-.1-2.1 0-2.4.1-.3.3-1.5.4-2.8.2-1.7-.1-2.1-1.3-1.7-1.3.5-1.4.4-.3-.6 1.7-1.8 1.5-3-.3-2.3-1.1.4-1.3.2-1-.9.4-.8-.1-2.1-.9-3-.8-.8-1.2-1.8-.8-2.2.4-.5.1-.5-.6-.1s-1.5 0-1.9-1c-.6-1.6-.7-1.5-2 .2-.7 1-1.3 1.2-1.3.5s-.4-1-.9-.6c-.5.3-1.3 0-1.7-.6-.4-.8-.3-.9.4-.5 1.7 1 1.5-1.3-.2-3-1.1-1.1-1.6-1.1-1.9-.1-.4.9-.6.9-.6-.1-.1-.7-.6-1-1.2-.6-.8.4-.8.1-.1-1.3.9-1.5.8-2-.3-2-.8 0-1.1.5-.8 1 .4.6.1.7-.6.2-.7-.4-1.1-1.5-.8-2.4.3-1.2-.3-1.7-1.9-1.9-1.3-.1-2.4.4-2.4 1.1-.1.6-.6.2-1.3-1.1-.7-1.2-1.7-1.9-2.2-1.5-.4.4-.5.2 0-.6.7-1.2 1-1.2 2 .2.7.9 1.6 1.2 2.4.8.9-.6.6-1-1.1-1.6-1.2-.4-2.6-.8-3-1-.5-.1-1.3-.3-1.9-.4-.5 0-.8-.4-.6-.9.3-.4-.2-1.4-1.1-2.2-1.4-1.3-1.5-1.2-.9.3.3.9.2 1.9-.4 2.2-.5.4-.8.1-.7-.7.2-.8-.5-1.2-1.7-1-1.8.2-1.9.2-.2-.8.9-.6 1.5-1.6 1.1-2.1-.3-.6-1.2-.5-2.2.3-1.3 1.1-1.5 1.1-1-.3.8-2.1-1-3.9-3-3.2-1.1.5-1.3.3-.7-.8.5-.8-.2-.5-1.5.6s-2 1.5-1.7.9c.7-1.2-1.1-3.2-2.8-3.2-.5 0-1.1-.6-1.3-1.4-.2-.9 0-.8.7.2.9 1.3 1.1 1.3 1.1-.3 0-1.1-.8-1.7-2.1-1.7-1.1 0-1.8-.4-1.4-.9.3-.5 0-1.3-.6-1.7-.8-.4-.9-.3-.5.4s.2 1.2-.3 1.2c-.6 0-1.1-.7-1.1-1.5s-.4-1.5-.9-1.5-.7 1-.5 2.2c.4 2.1.4 2.1-.5.3-.4-1.1-.7-2.8-.5-3.7.4-2.5-.5-2.2-1.7.4-.9 2.1-.9 2.1-.4-.5.3-1.5.2-2.7-.2-2.6-2.2.4-3.3-.3-3.3-1.9 0-1.4-.2-1.5-1-.2s-1 1.2-1-.3c0-1-.7-1.7-1.7-1.7-1.6 0-1.6.2-.3 1.1 1.2.8 1.2 1 .1.7-.8-.2-1.5-1.1-1.7-2-.1-1.1.3-1.5 1.4-1.1 1.4.4 1.4.3.3-.5-.8-.6-2.1-.8-2.9-.4-1.1.4-1.4.1-1-1 .5-1.1.1-1.4-1.8-1-1.9.3-2.4 0-2.4-1.5 0-2-4.4-4.8-6-3.8-.5.3-1.1.1-1.5-.5-.4-.6-1.1-.8-1.6-.4-.5.3-.8 0-.7-.8.2-.7-.3-1.2-1-1-.8.1-1.1-.2-.7-.9.5-.7 1.5-.3 3 1.1 1.8 1.7 2.5 1.9 3.1.8.4-.7.4-1-.1-.6-1.1 1.1-3.6-1.2-2.8-2.6.3-.6.3-.8-.2-.4-.4.4-2-.1-3.5-1.2-1.6-1.1-3.6-2-4.5-2-1.1 0-1.5-.5-1.1-1.5.4-1.3.2-1.4-1.4-.5-1.6.9-2.1.7-2.6-.7-1-3.4-2.2-4.8-3.7-4.7-.9.1-1.3-.4-1-1.2.4-1 0-1.2-1.1-.8-1 .4-1.8 0-2.2-1.1-.4-.9-1.2-1.4-1.9-1.1-.7.2-2.1-.4-3-1.4-1-1.1-2.2-1.7-2.8-1.3-.6.4-.7.1-.2-.6.5-.9 1.3-.7 3.1 1 1.3 1.2 2.4 1.8 2.4 1.2 0-.6-.7-1.4-1.6-1.7-.8-.3-1.3-1-1-1.4.9-1.5-2.8-1-4.9.7-1.8 1.5-1.9 1.5-.7-.1 1.2-1.5.9-1.9-1.7-3.2-1.8-1-3.1-1.2-3.4-.6-.3.6-.4.5-.3-.2.2-.7.8-1.3 1.3-1.3.6 0 1.4-.3 1.8-.7.4-.4-1-.5-3.1-.3-2.9.3-3.4.1-2.2-.6 1.6-.9 1.6-1.1-.3-3.3-1.4-1.6-3-2.3-4.9-2.2-2.3.2-2.7-.1-1.8-1.1.8-1 .6-1.3-1-1.3-2.7 0-5.1-2.8-3.3-3.9 1-.6.9-1-.4-1.4-.9-.4-1.3-.3-1 .3.3.6.1 1-.4 1-.6 0-1.1-.4-1.1-.9 0-1-3.9-2.7-5.3-2.3-.4.1-.3-.6.2-1.7.9-1.6.8-1.8-.9-1.4-1.1.3-1.7 1-1.3 1.6.3.6.1.7-.6.3-.6-.4-.9-1-.7-1.4.2-.4-.2-1.6-.9-2.6-1-1.4-2.1-1.7-4.2-1.2-2.6.6-2.6.5-.7-.6 2-1.3 2-1.3 0-3.2-1.5-1.5-1.8-1.6-1.3-.3.4 1.1 0 1.5-1.3 1.4-1.2-.1-1.6-.5-1-1.2.5-.6.5-1.7-.2-2.5-.8-1.2-.9-1.1-.4.5.6 1.9.6 1.9-.9.1-.8-1-1.2-2.2-1-2.6.2-.4-.2-.7-1-.7-1.2 0-1.2.3-.3 1.5.8.9-.1.7-2.3-.5-1.9-1.1-3.5-2.9-3.7-4.1-.2-1.2-.8-2.3-1.3-2.3-3.3-.5-5.9-2-5.2-3.2.4-.6 0-.8-1-.4-.9.3-1.9.2-2.2-.4-.4-.5-1-.7-1.5-.4-.4.3-.7-.3-.6-1.2.3-2.1-3.3-5.3-5.1-4.6-.8.3-1.3-.3-1.3-1.8 0-1.9-.2-2.1-.9-.9-.6.8-.8 1.7-.6 2 .2.4-.2.7-1 .7s-1.2-.4-.9-.8c.2-.4 0-1-.5-1.4-.6-.3-.8-1.2-.4-2.1.4-1.2.1-1.3-2-.5-2.2.9-2.5.8-2-.6.5-1.2.3-1.4-.8-.8-1.2.7-1.2.6-.1-.7 1.1-1.4 1-1.6-.7-1.1-1.9.5-2.6-.6-2.3-3.7 0-.3-.8-.6-1.8-.6s-1.6.5-1.3 1c.4.5.1.6-.6.2-.7-.5-1-1.4-.7-2.2.4-1.1.1-1.2-1.2-.5-2 1.1-5.2-.2-3.3-1.3.6-.4 1.1-.2 1.1.4 0 .6.5.8 1.1.5.6-.5.4-1.2-.8-2-1.4-1-2.1-1.1-3.2-.2-1.1 1-1.3.8-.6-1.2.6-1.8.4-2.2-.6-1.5-1.9 1.2-4 1.4-3.4.4.3-.5.1-1.1-.5-1.5-.6-.4-.8-1-.5-1.5.3-.5 0-1.2-.6-1.6-.8-.4-.7-.9.2-1.6 1.1-.8 1.1-.9-.1-.5-.8.2-1.4 1.1-1.2 1.9.1.8-.4 1.5-1.2 1.5-1.1 0-1.2-.6-.5-2.4.5-1.3.7-2.3.6-2.4-.8-.3-4.6-.9-6.4-1.1-1.2-.1-1.9-.6-1.7-1 .3-.5.9-.6 1.4-.3.5.3 1.1.1 1.4-.4.4-.5-.5-.8-1.9-.6-2.1.2-2.4-.1-2-1.6.4-1.1.2-1.9-.5-1.9-.6 0-.8.4-.5 1 .3.6-.1 1-.9 1-1.9 0-2-1.1-.3-3 .6-.8-.1-.4-1.8 1-1.6 1.4-2.3 1.7-1.6.7 1-1.2 1.1-2.1.4-2.8-.8-.8-1.3-.7-1.8.2-.6.8-.4 1 .5.4.9-.5 1.1-.4.6.4-1.1 1.7-2.5.4-2.1-1.9.2-1.2 0-1.8-.6-1.5-.5.4-.9.1-.9-.5s-.5-.8-1.2-.4c-.8.5-.9.2-.5-1 .4-.9.3-1.5-.2-1.2-.5.3-1.4-.1-2.1-.9-1.5-1.8-3.1-2-2.6-.3.1.7.1 1-.1.5-.3-.4-.9-.5-1.4-.2-.5.4-.6-.1-.3-1 .4-.8-.1-2.7-1.1-4.1-1.3-2-1.9-2.3-3.1-1.3-1.1.9-1.4.7-1.5-1.2 0-1.3-.3-1.8-.6-1.2-.7 2-2.3 1.5-1.7-.5.5-1.6.5-1.6-.9.1-1.3 1.6-1.5 1.6-2.1.2-.3-.9-.2-1.3.4-1 .6.3 1 .1 1-.4 0-.6-.8-1.1-1.9-1.1-1 0-2.5-.8-3.2-1.8-1.3-1.6-1.3-1.6.6-.2 1.9 1.4 1.9 1.4.6-.2-.7-1-1.7-1.5-2.3-1.2-.5.3-1.5 0-2.3-.6-1.2-1-1.5-1-1.5 0 0 .8-.3 1.1-.6.8-.3-.4 0-1.7.7-3l1.2-2.3-2.6 2.4c-1.9 1.7-2.5 1.9-2.3.7.1-.8.5-1.9.9-2.2 1-1.1.8-2.4-.4-2.4-.5 0-.8.4-.5.9.3.5-.1 1.1-.9 1.4-.9.4-1.2.1-.8-.9.3-.7 0-1.4-.6-1.4s-1.1.5-1.1 1.2c0 .6-.3.8-.6.5-.4-.4-.1-1.3.5-2.1 1-1.2.9-1.4-.8-.9-1.5.4-2.1.1-2.1-1.1 0-.9-.4-1.7-1-1.7-.5-.1-1.4-.3-2-.4-.5-.1-1.3-.3-1.8-.4-.4 0-1.3-1.1-2.1-2.4l-1.4-2.2 2.6 2.3c1.8 1.7 2.7 2 3.2 1.1.5-.7.4-1-.2-.6-.6.4-1.8-.2-2.8-1.3-1.4-1.5-2.1-1.7-3.2-.9-1 .9-1.3.8-1.3 0 0-.7-.5-.9-1.2-.5s-.8.3-.4-.5c.4-.6 1.2-.9 1.7-.6.5.4.9.1.9-.6s-.8-.9-2.1-.6c-1.4.4-2.3-.1-2.8-1.6-.5-1.2-.6-2.6-.3-3.1s0-.6-.6-.2c-.7.4-1.2.2-1.2-.5s-.3-.9-.6-.6c-.4.4-.1 1.3.6 2.2.8.9.8 1.5.2 1.5-.6 0-1.4-.9-1.7-2-.6-1.8-2.2-2.4-6.2-2.3-.8 0-.9-.7-.3-2.3.6-1.4.6-2.6 0-2.9-1-.6-1.4.1-1.1 1.8.1.5-.3.6-.8.3-.5-.4-1.1-.3-1.4.1-.2.5-.3.3-.1-.3.3-1.5-1.5-3.3-3-3-.6.2-.8.1-.3-.1 1.5-.9.6-3-1.9-4.1-1.9-.9-2.4-.9-1.8-.1.4.8.3.9-.4.5s-1.2-1.4-1.2-2.2c0-1.1-.6-1.4-2.3-.9-1.2.3-1.7.3-1.1-.2 1.3-.9 1.5-4.5.2-3.7-.5.3-.5 1.1-.1 1.7.5.8.2.8-.9 0-.8-.7-1.7-1.2-1.9-1-.2.1.2-.3.9-.9 1-.9 1-1.3-.3-1.8-.9-.3-1.3-.2-1 .4.3.6.1 1-.4 1-.6 0-1.1-.5-1.1-1.1 0-.5-.3-.8-.7-.6-.5.3-1.3-.1-2-.8-.9-1-1-1.4-.1-1.7.7-.3.5-.7-.6-1.1-1-.4-1.5-.3-1.1.3.3.6.1 1-.4 1-1 0-1.5-1.4-1.2-3.3.1-.5-.3-.6-.9-.2-.6.3-.8 1-.5 1.5.3.5 0 1.2-.7 1.6-.7.4-1 .4-.6-.1.5-.5-.1-1.4-1.2-2.2-1.1-.8-2-1.9-2-2.5 0-.7.6-.4 1.3.7 1.2 1.5 1.5 1.6 2.2.4.5-.8.4-1 0-.6-.5.4-1.5-.3-2.2-1.5-.7-1.3-1.2-1.7-1.3-1.1 0 .7-1 1.3-2.2 1.3-2.1 0-2.1-.1-.3-1.3 1.4-1.1 1.5-1.6.5-2.2-.9-.5-1.1-.4-.6.3.4.7.1 1.2-.9 1.2-.9 0-1.4-.3-1.2-.8.3-.4-.1-1.2-.8-1.9-1.1-1-1.5-1-1.8 0-.4.9-.6.9-.6-.1-.1-.8-.6-1-1.3-.6-.8.5-.7 0 .2-1.1.9-1.1 1-1.6.3-1.1-.9.4-1.3.1-1.3-.9 0-1.4-.6-1.6-2.7-1-2.7.6-2.7.6-.8-.9 1.3-1 1.5-1.5.5-1.4-.8.2-1.4-.2-1.5-.9 0-.6-.3-1.5-.7-1.9-.4-.3-.5.3-.3 1.6.3 1.7.1 1.9-.9 1.1-.7-.6-1.5-.8-1.9-.5-.3.3-.4-.2-.1-1.3.3-1.1-.3-2.3-1.7-3.1-1.5-.9-1.9-1-1.4-.1.5.7.3 1-.6.7-.8-.3-1.4-.9-1.4-1.5 0-.5-.8-1.8-1.8-2.8-1.5-1.4-2.1-1.5-3-.5-.7.7-.7 1-.2.7.6-.3 1.9.1 3 .9 1 .8 1.4 1.4.9 1.4-.6 0-1.4-.3-1.8-.8-.4-.4-1.3-.7-1.9-.7-.7-.1-1.1-.6-1-1.3.2-.6-.6-1.6-1.7-2.2-1.2-.7-1.8-1.6-1.3-2.3.4-.7-.2-.5-1.2.3-1.1.9-1.6 1-1.1.2.4-.7.2-1.2-.6-1.2-.9 0-.9-.3.2-1 .9-.6 1-1 .3-1-.6 0-1.5.5-1.9 1.1-.5.8-1 .6-1.6-.5-.5-.9-.6-2.1-.3-2.6.3-.6.1-1-.4-1-.6 0-1.1.6-1.1 1.4 0 .8-.5 1.8-1.2 2.2-.7.4-.8.3-.4-.5.4-.6 0-1.4-.8-1.7-.9-.3-1.6-1.1-1.6-1.6 0-.6.6-.5 1.5.2 1 .9 1.5.9 1.5.1 0-.6-.5-1.1-1.1-1.1-.5 0-.8-.4-.5-.9.7-1.1-1.3-.9-3.3.3-1 .6-1.2.5-.7-.2.4-.7.2-1.2-.3-1.2-.6 0-1.1-.8-1.1-1.7 0-1.5-.2-1.4-1.5.3-1.5 1.8-1.5 1.8-.8 0 .5-1.5.3-1.7-.8-1.1-1.2.7-1.2.6-.1-.7 1.2-1.4 1-1.6-1-1-2 .5-2.1.3-1-1 1.1-1.4 1-1.6-.6-1.1-1.2.3-2.2-.2-2.6-1.3-.5-1.3-.4-1.4.7-.6 1 .9 1.4.8 1.4-.2 0-1.4-2.1-1.6-3.3-.3-1 .9-4.4-2.2-4.4-4 0-1.6-1.2-1.7-2.9-.1-1.1 1-1.3 1-.7 0 .4-.6.2-1.2-.4-1.2-.6 0-.8-.5-.4-1.1.4-.8.9-.7 1.5.2.5.8.9.9.9.3 0-.6-.8-1.8-1.7-2.5-.9-.8-1.4-.9-1-.3.4.7.1 1.4-.7 1.7-1.6.6-2.6-.1-2.6-1.7 0-.6.5-.4 1 .4s1 1 1 .4-.8-1.8-1.7-2.5c-1.1-1-1.4-1-.9-.2.4.7.2 1.3-.3 1.3-.6 0-1.1-.5-1.1-1.1 0-.8-.6-.7-1.7.2-1.5 1.1-1.4 1 .1-.9 2.1-2.4 1.6-2.8-1.6-1.1-1.5.8-1.9.8-1.4 0 .4-.6.2-1.1-.3-1.1-.6 0-1.1-.5-1.1-1.1 0-.8.4-.8 1.4 0 1 .8 1.6.9 2.1.1.6-.9-.1-1.4-1.7-1.1-.5 0-.8-.4-.8-1.1 0-.6-.7-.3-1.6.8-.8 1-1.3 1.3-.9.6.3-.6.1-1.2-.5-1.2s-.8-.5-.4-1.2c.5-.8.2-.9-1-.5-1 .4-1.5.3-1.1-.3.3-.6-.1-1-1-1s-1.3-.5-1-1c.3-.6.1-1-.6-1-.8 0-.7-.5.2-1.7 1.2-1.4 1.2-1.5 0-.9-.8.5-1.7.3-2.3-.5-.7-1.1-.8-.9-.4.5.5 1.5.4 1.7-.7.8-.8-.7-1.8-.8-2.3-.4-.4.4-.3 0 .4-1 1-1.2 1-1.8.1-2.4-.8-.4-.9-.3-.5.4s.3 1.2-.3 1.2c-.5 0-1.1-.5-1.3-1.2-.2-.6-1.5-1.2-2.9-1.3-1.6-.1-2.3-.7-2.1-1.9.2-.9-.2-1.6-.8-1.6-.5 0-.9-.3-.9-.8.4-2.1-.4-2.3-2.8-.7-2.8 1.8-2.8 1.8-1-.2 1.9-2.1 1.7-2.2-3.6-2.4-1.4 0-1.6-.3-.7-1.4.8-1 .8-1.5-.1-2.1-.8-.4-.9-.3-.5.4s.3 1.2-.2 1.2c-.6 0-1.3-.7-1.6-1.6-.4-1-1.4-1.4-2.6-1.1-1.1.3-2 .1-2-.4s.4-.9 1-.9c.5 0 .7-.7.3-1.6-.5-1.3-.9-1-1.9 1.2l-1.3 2.9.4-2.8c.3-2.4-.1-3-3.1-4.4-1.9-.9-3.4-2.1-3.4-2.6s-.6-.4-1.4.2c-1.2 1-1.4.8-.9-1.1.4-1.8.3-2-.6-.8-.9 1.3-1.1 1.2-1.2-.5-.1-1.1-.1-2.4 0-2.9s-.5-.3-1.4.4c-1.4 1.2-1.8 1.2-2.5 0-.5-.9-.4-2 .3-2.9 1-1.2.9-1.3-1-.3-3 1.6-3.8 1.5-2.3-.3.7-.9 1-1.8.6-2.2-.3-.3-.6-.1-.6.5 0 .9-.6.9-2.5 0-1.3-.6-2.2-1.5-1.9-1.9.3-.5 0-.9-.6-.9s-.9-.4-.6-.8c.3-.5-.1-.9-.9-.9-1.1 0-1.2.4-.3 1.4.6.7.8 1.6.4 2-.3.3-.6.1-.6-.6s-.4-1-.8-.7c-.5.3-.9-.1-1-.9-.1-.8-.3-2.2-.4-3-.1-1.1-.5-1.2-1.2-.5-1.7 1.7-3 1.1-1.5-.7 1.3-1.5 1.2-1.5-1.1-.3-2.1 1-2.3 1-1.2-.1 1.5-1.6 1.6-2.9.1-2.9-.5 0-.7.4-.4 1 .3.5-.1 1-.9 1-.9 0-1.5-.3-1.5-.8.5-2.7-.1-3.4-1.8-2.1-1.1 1-1.4 1-.9.1.4-.7.2-1.2-.4-1.2-.6 0-.8-.5-.5-1 .5-.9-1.6-1.5-3.8-1.1-.5.1-.5-.9-.1-2.1.6-2 .5-2.1-1-.9-1.1.9-1.6 1-1.6.2 0-.7-.5-.9-1.1-.5-.8.4-.8.1-.1-1.3.9-1.5.8-2-.3-2-.8 0-1.1.5-.8 1.1.3.6 0 .5-.8-.2-1.2-1.1-1.2-1.4 0-2.1.8-.5.9-1.1.3-1.5-.5-.3-1.2.1-1.6.9-.6 1.6-3.6 1-3.6-.7 0-.6.8-.4 1.8.3 1.5 1.2 1.6 1.2.5-.2-.7-.9-.9-2-.5-2.5.4-.4 0-.3-.9.4-1.9 1.4-3 .6-2.2-1.6.4-1-.2-.7-1.3.6-1.9 2.3-2 2.3-2 .4 0-1.1.5-1.8 1.1-1.5.5.3.4 0-.2-.7-.7-.8-2.3-1.5-3.5-1.7-2.3-.4-4-2.2-3.2-3.5.3-.4-.2-.5-1-.2-1 .4-1.8-.1-2.2-1.1-.5-1.3-.9-1.4-1.5-.3-.6.9-.9.7-.9-1 0-1.2-.5-2.2-1.1-2.2-.5 0-.7.4-.4 1 .3.6-.1.7-1 .4-1.2-.5-1.3-.9-.4-2.1.9-1 .9-1.7.1-2.5-.7-.7-1.2-.8-1.2-.4 0 .5-.8.2-1.7-.5-1.6-1.3-1.7-1.2-.4.4 1.1 1.4 1.2 2 .2 3-1 .9-1.1.8-.5-.7.4-1.2.4-1.7-.2-1.3-.6.3-1.1-.4-1.1-1.5-.2-2.4-.6-2.9-2.8-3.2-.9-.1-2-.8-2.5-1.6-.4-.7-1.7-1.4-2.7-1.5-1 0-2.4-.4-3.1-.9-.7-.4-1.2-.2-1.2.5s-.2 1-.5.7c-.3-.3-.3-1.3.1-2.2.6-1.5.7-1.5 2 .1s1.3 1.5.2-1c-.6-1.5-1.4-2.4-1.7-1.9-1 1.5-4.1 2.2-3.8.9.1-.7.6-1.5 1-1.8.5-.3.1-.9-.8-1.2-.9-.4-1.3-.3-1 .3.9 1.5-.4 1.2-2.1-.4-.7-.8-1-1.6-.6-1.9.4-.2.1-.2-.6 0-.7.1-2.3-.2-3.5-.9-1.2-.7-2.9-1.1-3.7-1-1.3.2-1.3.1-.1-.7 1.4-.9.9-4.2-.6-4-.4.1-1.7.1-2.8 0-1.7-.1-1.8-.3-.5-1.1s1.3-1-.2-1c-.9 0-1.9.6-2.2 1.2-.3.7-.3.2 0-1.1.5-1.9.3-2.3-1-1.8-.9.4-1.6.2-1.6-.3 0-.6.5-1 1.2-1 .6 0 .8-.3.5-.6-.4-.4-1.4-.1-2.3.7-1.6 1.3-1.7 1.2-1.2-.9.6-2.3-.7-3.1-1.5-1-.3.8-.6.5-.6-.5-.1-1.2-.5-1.6-1.3-1.1s-.8.1.2-1.2c.8-1 1.1-1.6.6-1.2-.5.4-1.6-.2-2.6-1.4-1.3-1.7-1.7-1.8-1.7-.5 0 .9.4 1.4.9 1.1.4-.3.8 0 .8.5 0 .6-.5 1.1-1 1.1-1.2 0-3-4.1-2.3-5.3.2-.4-.1-.7-.7-.7-.7 0-1 .6-.7 1.3.3.8-.1 1.4-.8 1.4-.7 0-1.1-.6-.8-1.4.3-.7 0-1.3-.7-1.3-.6 0-.8-.5-.4-1.3.5-.7 0-.6-1.1.3-1.4 1.1-1.7 1.1-1.1.1.7-1 .3-1.2-1.3-.6-1.3.4-2.1.2-2.1-.5 0-.6.5-.8 1-.5.6.3 1 .1 1-.4 0-.6-.7-1.1-1.6-1.1-.9 0-1.2-.5-.8-1.2.4-.6.3-.9-.2-.6-.5.3-2.5-.1-4.4-.8-1.9-.8-2.5-1.2-1.2-1 2.6.5 2.9-.6.5-2.5-1.1-1-1.4-1-.9-.2 1.1 1.9-.5 1.5-1.9-.4-1.1-1.5-1.5-1.6-3.1-.3s-1.6 1.1.1-.9l2-2.4-2.2.7c-1.8.6-2.2.4-1.7-.8.4-1.1.1-1.6-1-1.6-.9 0-1.6-.8-1.7-1.8 0-1.4-.2-1.4-.9.3l-.9 2-.1-2c-.2-1.1-.2-2.7-.1-3.5.1-1.1-.1-1.1-.9.3-.6.9-.8 2.3-.4 3 .4.6-.3.2-1.5-1.1-1.2-1.2-2.6-2-3-1.8-.5.3-.6-.5-.4-1.8.5-2.4-2.1-4.4-3.2-2.6-.4.6-1.1 1-1.7 1-.6 0-.6-.6.2-1.5.7-.9 1-1.8.6-2.2-.3-.3-.6-.1-.6.6s-.5.9-1 .6c-.6-.4-1.9-.1-2.8.7-1.5 1.2-1.6 1.1-.3-.5 1-1.3 1-1.7.1-1.7-1 0-1-.3-.1-1.4.9-1.1.9-1.6 0-2.2-.8-.5-.9-.3-.4.6.6 1 .4 1.2-.9.7-1-.4-1.5-.3-1.1.3.3.6-.1.7-.9.4-.9-.3-1.6-1-1.6-1.5s-.9-1.8-2-2.9c-1.2-1.2-1.8-2.6-1.4-3.2.4-.7.3-.8-.5-.4-.6.4-.8 1.3-.4 1.9.5.8.2.8-.9 0-.8-.7-1.9-.9-2.4-.5-.4.4-.3-.1.4-1 1.1-1.4 1-1.6-1.1-1.4-1.9.2-2.3-.1-1.9-1.6.2-1-.1-1.8-.7-1.8-.7 0-.9.4-.6 1 .3.6-.1.7-.9.4-.9-.3-1.6-1-1.6-1.6 0-.5.4-.7.8-.4.5.3.9-.1.9-.8 0-.7-.5-1.3-1.1-1.4-3.5-.3-5.1-1.1-5-2.5.1-1-.4-1.3-1.4-1-1.1.5-1.3.3-.7-.7.6-1 0-1.2-2.4-.8-1.7.2-2.9.2-2.6 0 .3-.3-.1-1.2-.8-2.1-1-1.4-1-1.4.4-.3 1.4 1 1.9.9 3-.5 1.3-1.6 1.2-1.7-.3-.5-1 .8-1.9.9-2.2.3-.3-.5-1.5-.7-2.5-.4-1 .3-2.2 0-2.5-.6-.4-.7-.1-.8.8-.5.9.3 1.6.1 1.6-.6 0-.6-.4-.9-.9-.5-1.3.8-4.2-2.4-3.5-3.8.5-.8.2-.8-.7 0-1.5 1.5-3.3 1.7-2.5.4.3-.5-.1-1.4-.9-2.1-.8-.7-1.5-.9-1.5-.5s-.8.1-1.7-.6c-1.1-.9-1.4-1-.9-.2.5.9.2 1.1-.8.7-.8-.3-1.2-1.3-1-2.2.5-1.4.3-1.3-1 .2-1.5 1.8-1.5 1.8-1.2-1.1.4-3.2.5-3.2-6.6-3.5-3.7-.2-4.5-.5-3.6-1.5.8-1 1.4-1.1 2.5-.2.7.7 1.6.9 2 .5.3-.3.1-.6-.6-.6s-.9-.5-.6-1c.4-.6.3-1-.2-.9-2 .3-3.4-.2-2.8-1 .3-.6-.6-.8-2-.5-2 .3-2.3.1-1.8-1.3.6-1.6.4-1.6-1.8.2-1.3 1.1-1.8 1.3-1.1.5 1.4-1.7 1.6-3.4.2-2.5-.5.3-1 .1-1-.5s-.4-.8-1-.5c-.5.3-1-.1-1-1.1 0-1.1-.6-1.5-2-1.1-1.1.3-1.8.1-1.5-.3.7-1.1-3-3.2-4-2.2-.3.4-.5 0-.3-.8s-.3-1.4-1-1.2c-.8.1-1.1-.2-.7-.8.3-.5.1-1-.4-1-.6 0-1.1-.5-1.1-1.2 0-.6 1-.2 2.3.9 1.2 1.1 2.9 1.8 3.7 1.6 1.1-.3 1.1-.2.3.4-.9.6-.7 1.2.8 2.2 1.7 1 2 1 1.3-.1-.5-.7-.9-1.8-.9-2.3 0-.6-.9-1-2-1-1.2-.1-1.9-.7-1.7-1.5.2-.8 0-1.2-.4-.7-1 1-4.5-2.3-3.8-3.5.4-.6-.4-.4-1.7.2-1.7 1-2.4 1-2.7.1-.2-.6-.8-.9-1.3-.5-.5.3-.9 0-.9-.6s-.5-.8-1.2-.4c-1 .6-1 .5-.1-.8 1.5-1.8.5-3.2-1.3-1.7-.8.7-1.4.6-2-.2-.5-.8-.3-.9.7-.4 1.2.8 1.2.6 0-.8-1.2-1.5-3.1-1.5-3.1-.1 0 .3.5.2 1-.1 1.5-.9 1.2.1-.3 1.4-1.1.8-1.4.7-1.4-.7 0-.9.5-2.4 1.1-3.2 1-1.3.9-1.3-.6-.1-1.6 1.2-2.1.9-4.8-1.9-1.6-1.8-3-2.9-3-2.6 0 .4-.9.2-2-.4-1.6-.9-1.9-.8-1.4.7.3 1-.2.7-1-.7-1.4-2.3-1.5-2.3-1.6-.5l-.1 2-.8-2c-.5-1.1-.7-2.3-.4-2.8.8-1.4-.5-.7-1.8 1zm11 7.1c0 1.4-.2 1.4-.6.2-.4-.8-1.3-2.1-2.2-2.8-1.4-1.1-1.3-1.1.7-.2 1.2.6 2.2 1.8 2.1 2.8zM49 119.4c0 .2-.7.7-1.6 1-.8.3-1.2.2-.9-.4.6-1 2.5-1.4 2.5-.6zm52.6 6.8c.4.7.3.8-.5.4-.6-.4-2-.2-2.9.6-1.5 1.2-1.6 1.1-.3-.5 1.6-2 2.7-2.2 3.7-.5zM20 139.7c0 .3-.7.2-1.6-.1-1.2-.5-1.5-.2-1 1 .5 1.4.4 1.5-.9.4-1.2-1-1.3-1.5-.4-2.1 1.2-.7 3.9-.2 3.9.8zm101.5 3.2c.3.5.2 1.2-.3 1.5-.5.3-.9-.1-.9-.9 0-1.7.3-1.9 1.2-.6zm-2.5.5c0 .3-.4.8-1 1.1-.5.3-1 .1-1-.4 0-.6.5-1.1 1-1.1.6 0 1 .2 1 .4zm13 6.1c0 .2-.6.7-1.2 1.1-.7.4-1 .4-.6-.1.4-.4 0-1.4-1-2.2-1.5-1.3-1.5-1.3.6-.3 1.2.6 2.2 1.3 2.2 1.5zm8.5 5.4c.3.5.2 1.2-.3 1.5-.5.3-.9-.1-.9-.9 0-1.7.3-1.9 1.2-.6zm-2.5.5c0 .2-.8 1-1.7 1.7-1.6 1.3-1.7 1.2-.4-.4 1.3-1.6 2.1-2.1 2.1-1.3zm7 5.1c0 .5-.5.3-1-.5s-1-2-1-2.5c0-.6.5-.3 1 .5s1 1.9 1 2.5zm44.8 32c-.3.3-.9-.2-1.2-1.2-.6-1.4-.5-1.5.5-.6.7.7 1 1.5.7 1.8zm74.6 57.5c-.6.6-1 .3-1-1s.4-1.6 1-1c.7.7.7 1.3 0 2zm5.4 2.5c-.3.3-.9-.2-1.2-1.2-.6-1.4-.5-1.5.5-.6.7.7 1 1.5.7 1.8zm13.7 11.5c.3.6-.1.7-.9.4-1.8-.7-2.1-1.4-.7-1.4.6 0 1.3.4 1.6 1zm4.9 3.6c.3.8.2 1.2-.4.9-.6-.3-1-1-1-1.6 0-1.4.7-1.1 1.4.7zM346 310c.8.5 1.1 1 .5 1-.5 0-1.7-.5-2.5-1s-1-1-.5-1c.6 0 1.7.5 2.5 1zm-1.5 1.9c.3.5.2 1.2-.3 1.5-.5.3-.9-.1-.9-.9 0-1.7.3-1.9 1.2-.6zm19.1 11.1c0 1.2-.4 1.6-.9 1.1s-.6-1.4-.3-2c1-1.5 1.2-1.4 1.2.9zm79.8 58.8c.3.5-.1.9-.9.9s-1.2-.4-.9-.9c.3-.4.7-.8.9-.8.2 0 .6.4.9.8zm7.7 8.5c-1 .9-1.1.8-.5-.6.3-1 .9-1.5 1.2-1.2.3.3 0 1.1-.7 1.8zm-68.7 44.3c.5 1.4.4 1.5-.9.4-1.7-1.4-1.9-2-.6-2 .5 0 1.2.7 1.5 1.6zm10.6 7c0 .8-1.9 1.3-2.4.6-.3-.5.1-.9.9-.9s1.5.2 1.5.3zm154.9 20.8c0 .6-.3.5-.6-.2-.2-.6-.8-1-1.2-.8-.4.3-.7-.4-.7-1.5 0-1.9.1-1.9 1.3-.3.7 1 1.3 2.3 1.2 2.8zm5.9 5.1c-.3.3-.9-.2-1.2-1.2-.6-1.4-.5-1.5.5-.6.7.7 1 1.5.7 1.8zm2.2 2.5c.8.5 1.1 1 .5 1-.5 0-1.7-.5-2.5-1s-1-1-.5-1c.6 0 1.7.5 2.5 1zm-117.3 6.5c0 .8-.4 1.2-.9.9-.5-.3-.6-1-.3-1.5.9-1.3 1.2-1.1 1.2.6zm136.3 4c0 .2-1 .9-2.2 1.5-2.2 1.1-2.2 1-.4-.4 2.1-1.7 2.6-1.9 2.6-1.1zm18.4 17c-.4.8-1.1 1.2-1.6.9-.6-.4-.5-1 .3-1.5 1.9-1.2 1.9-1.1 1.3.6zm18.5 12.9c-.3.3-1.1-.5-1.8-1.7-1.3-2.1-1.2-2.1.5-.5 1 1 1.6 2 1.3 2.2zM486 512c0 .5-.2 1-.4 1-.3 0-.8-.5-1.1-1-.3-.6-.1-1 .4-1 .6 0 1.1.4 1.1 1zm22.4 16.6c.3.8.2 1.2-.4.9-.6-.3-1-1-1-1.6 0-1.4.7-1.1 1.4.7zm157.5 21.2c.8 1.5.5 1.8-1.2 1.9-1.2 0-1.6-.1-.9-.4 1.9-.7 1.4-2.3-.5-1.7-1.5.5-1.6.4-.3-.5 1.9-1.4 1.8-1.4 2.9.7zm36.9 29.1c-.7.2-1.4-.1-1.6-.8-.2-.6-.9-.8-1.4-.5-.7.4-.8.2-.4-.4.5-.9 1.2-.8 2.7.1 1.2.7 1.5 1.3.7 1.6zm11.2 7.7c0 .2-.9 0-2-.6s-2-1.3-2-1.6c0-.2.9 0 2 .6s2 1.3 2 1.6zm35 25.4c0 .5-.5 1-1.1 1-.5 0-.7-.5-.4-1 .3-.6.8-1 1.1-1 .2 0 .4.4.4 1zm16.7 13.5c0 .8-.4 1.2-.9.9-.5-.3-.6-1-.3-1.5.9-1.3 1.2-1.1 1.2.6zm15.4 12.2c1.3 1.5 1.7 2.2.8 1.5-.9-.6-2-.8-2.5-.4s-.6.3-.2-.2c.4-.5.3-1.5-.3-2.3-2.1-2.5-.3-1.3 2.2 1.4zM725 692.2c0 .4-.4.8-.9.8-.6 0-1.2-.4-1.5-.8-.3-.5.1-.9.9-.9s1.5.4 1.5.9z"/><path d="M59.5 108.9c-.3.5-.1 1.2.5 1.6.5.3 1-.1 1-.9 0-1.8-.6-2.1-1.5-.7zM459.7 108.7c-1 .9-.9 2.3.1 2.3.5 0 .9-.7.9-1.5 0-1.7-.1-1.8-1-.8zM53.6 110.5c-.9 2.6-.7 3.2.5 1.2.6-1 .9-2.1.6-2.3-.2-.3-.7.2-1.1 1.1zM46.3 115.5c-1.1.8-2.4 1.1-2.8.7-.3-.4-.5 0-.3.8.2 1.1-.4 1.4-2.2 1.2-1.9-.2-2.2 0-1 .8 1 .6 1.1 1 .3 1-.7 0-1.3.5-1.3 1.1 0 .6 1.6 0 3.5-1.5 1.9-1.4 4.4-3 5.6-3.4 1.2-.5 1.8-1.2 1.2-1.5-.5-.3-1.9 0-3 .8zM3.6 146.7c-.4.9-.3 1.9.2 2.2.5.3.8 1.3.7 2.2-.2.9.3 1.6 1.1 1.6 1 0 1.1-.4.3-1.4-.6-.7-.8-1.3-.3-1.3.4 0 .3-.5-.3-1.1-.6-.6-.9-1.8-.6-2.5.3-.8.3-1.4 0-1.4s-.8.8-1.1 1.7zM11 157.1c0 .5.5.7 1 .4.6-.3 1-.8 1-1.1 0-.2-.4-.4-1-.4-.5 0-1 .5-1 1.1zM716.4 159.4c.1.8.5 1.8.8 2.2.4.3.5-.1.4-1-.1-.8-.5-1.8-.8-2.2-.4-.3-.5.1-.4 1zM192 193.4c0 .2.7.7 1.6 1 .8.3 1.2.2.9-.4-.6-1-2.5-1.4-2.5-.6zM246 234.4c0 .3.9 1 2 1.6 1.1.6 2 .8 2 .6 0-.3-.9-1-2-1.6-1.1-.6-2-.8-2-.6zM117.5 237.1c-.4.5-.4 1.3-.1 1.6.3.4.6 0 .6-.8 0-1.1.2-1.1 1 .1.6.9 1 1 1 .3 0-1.7-1.7-2.5-2.5-1.2zM333.5 300c.3.5.8 1 1.1 1 .2 0 .4-.5.4-1 0-.6-.5-1-1.1-1-.5 0-.7.4-.4 1zM235.6 325.8c-.3.5.1.9.9.9s1.2-.4.9-.9c-.3-.4-.7-.8-.9-.8-.2 0-.6.4-.9.8zM402 351.4c0 .2.7.9 1.5 1.6 1.3 1.1 1.4 1 .9-.4-.5-1.4-2.4-2.3-2.4-1.2zM306.2 379.4c.7.8 1.5 1.2 1.7 1.1.5-.6-1-2.5-2-2.5-.5 0-.4.6.3 1.4zM327.6 395.3c.3 1 .9 1.5 1.2 1.2.3-.3 0-1.1-.7-1.8-1-.9-1.1-.8-.5.6zM491 418c0 .5.5 1 1.1 1 .5 0 .7-.5.4-1-.3-.6-.8-1-1.1-1-.2 0-.4.4-.4 1zM496.5 421.9c-.3.5-.2 1.2.3 1.5.5.3.9-.1.9-.9 0-1.7-.3-1.9-1.2-.6zM506 430c0 .5.7.7 1.5.4.8-.4 1.5-.8 1.5-1 0-.2-.7-.4-1.5-.4s-1.5.4-1.5 1zM375 431.8c0 .5.7.9 1.5.9s1.2-.4.9-.9c-.3-.4-.9-.8-1.5-.8-.5 0-.9.4-.9.8zM1.7 436.4C.1 437.6 0 445.1 0 568.9V700h170.8c96.2 0 170.1-.4 169.3-.9-1-.7-1.1-.9-.1-1.3.8-.2 1.4-1.2 1.6-2.1.1-.9-.2-1.5-.7-1.1-.5.3-.7 1-.4 1.5.4.5.2.9-.3.9s-.9-1.3-.8-2.9c0-2.3.4-2.7 1.4-1.9.9.8 1.1.7.6-.6-.3-.9-1-1.6-1.6-1.6-.5 0-.6-.5-.3-1 .4-.6 1.2-.8 1.8-.4.7.3.1-.4-1.3-1.5-1.4-1.2-1.8-1.9-.9-1.5 2 .6 3.4-1.1 1.8-2.2-.8-.5-.9-.3-.4.6.5.8.4 1.1-.3.7-1.1-.7-1.1-3.2.1-4.3 1.2-1.2.8-2.6-.5-1.8-.8.5-.8.3-.2-.7 1.3-2 1.3-6.9 0-6.2-.6.3-.8.3-.4-.2.4-.4.2-1.5-.5-2.3-1-1.3-.9-1.4 1-.3 1.9 1 2.2.9 1.7-.4-.4-.8-1.1-1.5-1.8-1.5-.6 0-.3-.5.7-1.1 1.5-.9 1.6-1.3.6-2.6-.7-.8-1.3-2.3-1.4-3.4-.1-1.5.1-1.6 1.2-.7 1.1.8 1.2.7.7-.6-.3-.9-1-1.6-1.5-1.6s-.9-.5-.9-1.1c0-.5.6-.7 1.3-.3.6.4.3-.3-.8-1.6l-2-2.3 2.2 1.2c1.9 1 2.2.9 1.7-.4-.4-.8-1.1-1.5-1.7-1.5-.6 0-.2-.7.9-1.5 1.6-1.3 1.6-1.4.2-.9-2.3.8-2.3-.3 0-2.4 1-1 1.1-1.3.3-.7-1.2.8-1.3.6-.8-.8.3-.9.3-1.7-.2-1.7-.4 0-.8-.7-.8-1.5s.4-1.5.9-1.5c.4 0 .8.5.8 1.2 0 .6.3.8.7.5.3-.4-.3-1.7-1.6-2.8-1.9-1.7-2-2.3-.9-3.7 1-1.2 1-1.4.1-.8-.7.4-1.3.3-1.3-.3s-1.5-.9-3.4-.7c-1.9.1-3.3-.1-3-.5.2-.4-.3-.9-1.1-1.2-1-.4-1.2-.1-.8 1.1.6 1.5.5 1.5-1 .3-1.2-.9-1.7-1-1.7-.2 0 .9-.5.9-2 .1-1.6-.9-2-.8-2 .6 0 1.3-.4 1.1-2.1-.7-1.4-1.6-1.9-1.8-1.5-.7.4 1.3 0 1.6-1.9 1.2-5.1-.9-11.4-1.1-10.9-.3.7 1.2-.3 1.1-2.7-.1-1.5-.9-1.9-.7-2 .7 0 1.6-.1 1.6-.9-.2-.5-1.1-.9-1.4-.9-.7-.1.7-.6 1-1.1.7-.6-.4-.8-1.2-.4-1.8.3-.7-.1-.4-.9.5-1.4 1.8-3.3 2.6-2.4 1 .3-.4-2.6-.7-6.3-.7-3.9 0-6.6.4-6.2.9.3.6-.3.6-1.4.2-2.2-.9-3-1-6.2-.2-1.2.3-2 .1-1.7-.3.3-.5-.2-1.2-1.1-1.5-1.1-.4-1.5-.2-1.1.8.4 1.1 0 1.3-1.8 1-5.1-.9-11.4-1.1-10.9-.3.7 1.2-.3 1.1-2.7-.1-1.5-.9-1.9-.7-2 .7 0 1.6-.1 1.6-.9-.2-.5-1.1-.9-1.4-.9-.7-.1.7-.6 1-1.1.7-.6-.4-.8-1.2-.4-1.8.3-.7-.1-.4-.9.5-1.4 1.8-3.3 2.6-2.4 1 .3-.4-2.6-.7-6.3-.7-3.9 0-6.6.4-6.2.9.3.6-.3.6-1.4.2-2.2-.9-3-1-6.2-.2-1.2.3-2 .1-1.7-.3.3-.5-.2-1.2-1.1-1.5-1.1-.4-1.5-.2-1.1.8.4 1.1 0 1.3-1.8 1-5.1-.9-11.4-1.1-10.9-.3.7 1.2-.3 1.1-2.7-.1-1.5-.9-1.9-.7-2 .7 0 1.6-.1 1.6-.9-.2-.5-1.1-.9-1.4-.9-.7-.1.7-.6 1-1.1.7-.6-.4-.8-1.2-.4-1.8.3-.7-.1-.4-.9.5-1.4 1.8-3.3 2.6-2.4 1 .3-.4-2.6-.7-6.3-.7-3.9 0-6.6.4-6.2.9.3.6-.3.6-1.4.2-2.2-.9-3-1-6.2-.2-1.2.3-2 .1-1.7-.3.3-.5-.2-1.2-1.1-1.5-1.1-.4-1.5-.2-1.1.8.4 1.1 0 1.3-1.8 1-5.1-.9-11.4-1.1-10.9-.3.7 1.2-.3 1.1-2.7-.1-1.5-.9-1.9-.7-2 .7 0 1.6-.1 1.6-.9-.2-.5-1.1-.9-1.4-.9-.7-.1.7-.6 1-1.1.7-.6-.4-.8-1.2-.4-1.8.3-.7-.1-.4-.9.5-1.4 1.8-3.3 2.6-2.4 1 .3-.4-2.6-.7-6.3-.7-3.7 0-6.6.3-6.3.7.6 1.1-.9 1-2.6-.1-.9-.6-2.2-.6-3.2 0-1.1.6-2 .5-2.4 0-.3-.6-1.4-.9-2.5-.8-1 .1-1.6.5-1.4.9.9 1.4-1.4.8-3-.8-1.5-1.4-1.6-1.4-1.6.3 0 1-.4 1.4-.8.8-1-1.4-3.5-1.8-2.6-.4.4.8-.1.9-1.7.4-3.7-1.2-7-1.4-6.3-.4.9 1.5-1.3 1-3-.7-1.5-1.4-1.6-1.4-1.6.3 0 1-.4 1.4-.8.8-1-1.4-3.5-1.8-2.6-.4.4.8-.1.9-1.7.4-3.7-1.2-7-1.4-6.3-.4.9 1.5-1.3 1-3-.7-1.5-1.4-1.6-1.3-1.7.8 0 2.2-.1 2.2-.9.3-.5-1.1-.9-1.5-.9-.8-.1 1.3-2.6 1.2-3.8-.2-.4-.4-.2-.5.6 0 1 .6 1.2.4.7-.4-.6-.9-1.2-.9-2.4.1-1 .7-1.4.9-1 .4.4-.5-.3-1.7-1.5-2.8l-2.2-1.9 2.2 1c2.6 1.3 4.3 1.4 2.4.2-.8-.5-1.6-1.7-1.7-2.5-.1-.9.1-1.4.5-1.2.4.3 1.3-.4 2-1.6.7-1.1.8-1.7.2-1.4-.5.4-1.3-.4-1.7-1.6-.8-2.4-1.5-11.2-.7-9.1.3.7 1.2 1.3 2.1 1.2 1.1 0 1.2-.2.5-.6-.7-.2-1.3-.9-1.3-1.4 0-.6.6-.7 1.3-.3.9.6.9.5 0-.8-.7-.8-.9-1.9-.5-2.3.4-.5.1-.5-.6-.1s-1 1.2-.7 1.7c.4.5.2.9-.3.9-.6 0-1.3-.7-1.6-1.6-.3-.8-.2-1.2.4-.9.5.3.9-.5.8-1.7-.1-3.8.2-4.9 1.1-4.3.5.3 1.3 0 1.7-.6.4-.7.3-1-.2-.6-.5.3-1.8-.2-2.9-1-2-1.5-2-1.5 0-.9 1.9.5 2.1.2 2-3.3 0-2.9-.3-3.7-1.2-3-.7.7-1.4.6-1.9-.2-.4-.8-.3-.9.4-.5s1.1-.2 1-1.6c-.1-3.8.2-4.9 1.1-4.3.5.3 1.3 0 1.7-.6.4-.7.3-.9-.3-.6-.6.4-1.8-.2-2.8-1.3-1.3-1.5-1.5-2.3-.7-3.3.9-1 .8-1.7-.1-2.7-1-1.2-.9-1.2.5-.1 1 .7 1.5 1.8 1.1 2.4-.3.5-.2.7.3.4 1.2-.7 1.1-7.4-.1-8.4-.4-.5-.5-.2-.1.4.4.7.3 1.3-.3 1.3-.5 0-.9-.9-.8-1.9 0-1.1.5-1.7.9-1.5.6.4.4-8.9-.2-10.6-.1-.3-.2-.9-.1-1.3.1-.5-.3-.6-.9-.2-.5.3-1 .1-1-.5s-.5-.8-1.2-.4-.8.3-.4-.5c.4-.6 1.2-.9 1.7-.6.9.6 1.3-1.5 1-4.4-.2-.8.2-1 1-.5.8.4 1 .3.5-.5-.4-.6-1.1-.9-1.6-.6-.4.3-1.4-.3-2.1-1.3-1.3-1.5-1.2-1.6.4-.3 1.8 1.5 2.4.2.6-1.6-.8-.8-.7-1.3.2-1.8.8-.6 1-.4.4.5-.5.9-.4 1.1.4.6.9-.6.8-1.4-.4-3.2-1.7-2.7-1.4-3.1.7-1 1.2 1.2 1.4.7 1.4-3 0-4-.6-4.9-2.9-4.5-.5.1-.6-.3-.3-.8.4-.5 1.4-.8 2.4-.6 1.4.2 1.7-.3 1.6-2.4-.1-1.4-.3-2.8-.4-3.1-.1-.3-.1-1.5 0-2.7.1-1.2-.4-3.2-1.1-4.5-1.2-2.2-1.1-2.2.6-.8 1.1.9 1.6 1 1.1.2-.4-.6-.4-1.8.1-2.5 1.1-1.7 1.3-3.8.3-3.2-.5.3-1.4-.5-2.1-1.7-1.1-2-1.1-2.2.3-1 1.3 1 1.8 1 2.4.1.4-.7.3-.9-.4-.5-.6.3-1.4-.4-1.8-1.6-.8-2.4-1.5-11.2-.7-9.1.3.7 1.2 1.3 2.1 1.2 1.1 0 1.2-.2.5-.6-.7-.2-1.3-.9-1.3-1.4 0-.6.5-.7 1.1-.4.6.4.5-.1-.2-1.3s-.9-2.7-.4-3.8c1.3-3.2 1.3-4.1 0-4.1-.7 0-1.2.8-1 1.9.2 1 0 1.8-.4 1.8-.9 0-.7-10.2.3-11.8.3-.6-.2-1.6-1.1-2.2-1.7-1.1-1.7-1.1 0-.6 1.8.6 2 0 1.7-5.2-.1-1.8.3-3.9.9-4.6.8-.9.7-1.3-.4-1.3-.8 0-1.2.4-.9.9.3.4 0 .8-.6.8-.7 0-1-.6-.7-1.4.3-.7 0-1.9-.6-2.6-.9-1-.9-1.1.2-.5 1.1.6 1.3.4.7-1-.5-1.5-.4-1.6.8-.6 1.1.9 1.6.9 2.2 0 .4-.7.3-.9-.4-.5-.6.3-1.4-.4-1.8-1.6-.8-2.4-1.5-11.2-.7-9.1.3.7 1.2 1.3 2.1 1.2 1.1 0 1.2-.2.5-.6-.7-.2-1.3-.9-1.3-1.4 0-.6.6-.7 1.3-.3.9.6.9.5 0-.7-1-1.2-1-1.8 0-2.9.8-.9.8-1.1 0-.6-1.9 1-2.2-1.7-.4-3.9 1.5-1.8 1.5-1.9-.1-.6-1.6 1.2-2.2.9-1.9-1.1 0-.4-.8-1.2-1.9-1.8-1.1-.6-2-.8-2-.5 0 .3-1 .1-2.1-.6-1.3-.7-1.9-.7-1.5-.1.4.6-.2 1-1.4.9-1.1-.1-2-.5-2-.9s-.5-.8-1.1-.8c-.5 0-.8.4-.5.8.2.4-.4.8-1.5.8-1 0-1.9-.4-1.9-.8 0-.5-.8-.5-1.7 0-2.2 1.1-9.5.4-10.9-1.1-.4-.3-1.6-.1-2.8.5-1.1.6-2.2 1.1-2.3 1-.2-.1-.4-.2-.5-.1-2.2.7-5.1.3-5.5-.8-.4-1.1-.8-1-1.9.4-1.2 1.6-1.3 1.7-1.4.1 0-.9-.4-1.9-.9-2.2-.5-.3-.8.2-.7 1 0 .9-.7 1.8-1.7 2-1.2.1-1.7-.2-1.3-1.1.3-.9 0-1.2-.9-.8-.8.3-1.3.8-1 1.2.2.5-1.1.7-3 .6-2.1-.2-3.5.2-3.5.9 0 .6-.5.3-1.1-.7-.6-.9-1.4-1.5-1.9-1.2-.5.3-1.1.1-1.5-.5-.4-.7-1.2-.7-2.6 0-1 .6-1.9.8-1.9.4 0-.3-.6-.2-1.2.2-.7.5-2.2.9-3.3.9-1.1 0-2.3.4-2.7 1-.5.7-.8.6-.8-.2 0-.7-1.5-1-4.1-.8-4 .3-4 .3-2.3-1.6 2-2.2 1.7-2.4-.9-.5zm18.6 2.1c-.3.9-.8 1.4-1 1.1-.3-.3-.2-.9.2-1.5.9-1.6 1.5-1.3.8.4zm32 0c-.3.9-.8 1.4-1 1.1-.3-.3-.2-.9.2-1.5.9-1.6 1.5-1.3.8.4zm26.2 1.4c-.9.8-3.6 1-3 .2.2-.4 1.1-.8 2-.8.8 0 1.3.3 1 .6zm2.2.8c-.4.3-.2 1.1.3 1.8.7.8.5 1.2-.4 1.2-.8 0-1.2-.7-1.1-1.6.5-2.2.4-2.1 1.2-2.1.3 0 .3.3 0 .7zm.3 5.3c0 .5-.5 1-1.1 1-.5 0-.7-.5-.4-1 .3-.6.8-1 1.1-1 .2 0 .4.4.4 1zm1.7 2.5c0 .8-.4 1.5-.9 1.5-1 0-1.1-1.4-.1-2.3.9-1 1-.9 1 .8zm-.2 48.5c.3.5.1 1-.4 1-.6 0-1.1-.5-1.1-1 0-.6.2-1 .4-1 .3 0 .8.4 1.1 1zm1 19c-.3.5-1 1-1.6 1-.5 0-.9-.5-.9-1 0-.6.7-1 1.6-1 .8 0 1.2.4.9 1zm-1 12.8c-.3.3-1.1 0-1.8-.7-.9-1-.8-1.1.6-.5 1 .3 1.5.9 1.2 1.2zm-.5 6.6c0 .2-.7.7-1.6 1-.8.3-1.2.2-.9-.4.6-1 2.5-1.4 2.5-.6zm-.3 3.1c0 .8-.4 1.2-.9.9-.5-.3-.6-1-.3-1.5.9-1.3 1.2-1.1 1.2.6zm-1.2 13.4c.3.5.2 1.2-.3 1.5-.5.3-.9-.1-.9-.9 0-1.7.3-1.9 1.2-.6zm1 8.1c.3.6-.1.7-.9.4-1.8-.7-2.1-1.4-.7-1.4.6 0 1.3.4 1.6 1zm.1 4.9c-.4.6-1.3 1.1-1.9 1.1-.8 0-.7-.3.2-.9.8-.5 1-1.4.6-2.2-.6-1.1-.5-1.1.5-.2.7.6.9 1.6.6 2.2zm.4 2.5c0 .2-.7.7-1.6 1-.8.3-1.2.2-.9-.4.6-1 2.5-1.4 2.5-.6zm.7 28c0 1.5-2.1 1.6-3.4.1-.4-.4-.3-.5.4-.1.6.3 1.4.2 1.8-.4.8-1.4 1.2-1.3 1.2.4zM337 635c0 .5-.5 1-1.1 1-.5 0-.7-.5-.4-1 .3-.6.8-1 1.1-1 .2 0 .4.4.4 1zm3.5 29c.3.5.1 1-.4 1-.6 0-1.1-.5-1.1-1 0-.6.2-1 .4-1 .3 0 .8.4 1.1 1zm-1 12c.3.5.1 1-.4 1-.6 0-1.1-.5-1.1-1 0-.6.2-1 .4-1 .3 0 .8.4 1.1 1z"/><path d="M5 435.4c0 .2.8 1 1.8 1.7 1.5 1.3 1.6 1.2.3-.4S5 434.6 5 435.4zM82.3 455.5c0 .8.4 1.5.9 1.5.4 0 .8-.4.8-.9 0-.6-.4-1.2-.8-1.5-.5-.3-.9.1-.9.9zM82.7 459.1c.7.7 1.5 1 1.8.7.3-.3-.2-.9-1.2-1.2-1.4-.6-1.5-.5-.6.5zM82.8 465.7c.7.3 1.6.2 1.9-.1.4-.3-.2-.6-1.3-.5-1.1 0-1.4.3-.6.6zM83.3 480.5c0 .8.4 1.2.9.9.4-.3.8-.9.8-1.5 0-.5-.4-.9-.8-.9-.5 0-.9.7-.9 1.5zM82.3 484.5c0 .6.6 1.2 1.2 1.2s1.2-.6 1.2-1.2-.6-1.2-1.2-1.2-1.2.6-1.2 1.2zM580 485.9c0 .6.4 1.3 1 1.6.6.3.7-.1.4-.9-.7-1.8-1.4-2.1-1.4-.7zM82.3 503.5c0 .8.4 1.5.9 1.5.4 0 .8-.4.8-.9 0-.6-.4-1.2-.8-1.5-.5-.3-.9.1-.9.9zM603.5 504c.3.5.8 1 1.1 1 .2 0 .4-.5.4-1 0-.6-.5-1-1.1-1-.5 0-.7.4-.4 1zM82.7 507.1c.7.7 1.5 1 1.8.7.3-.3-.2-.9-1.2-1.2-1.4-.6-1.5-.5-.6.5zM615 510.9c0 .5.5 1.3 1 1.6.6.3 1 .2 1-.4 0-.5-.4-1.3-1-1.6-.5-.3-1-.2-1 .4zM620.1 513.7c-.1 1.7 1.6 2.5 2.5 1.2.4-.7.3-.9-.4-.5-.5.3-1.3 0-1.5-.6-.4-.9-.6-1-.6-.1zM626.5 519c-.7 1.2.2 3 1.6 3 .5 0 .9-.5.9-1.1 0-.5-.4-.7-1-.4-.5.3-1 .2-1-.4 0-.5.6-1.2 1.3-1.4.9-.4.9-.6 0-.6-.6-.1-1.5.3-1.8.9zM645.3 532.5c0 .8.4 1.2.9.9.5-.3.6-1 .3-1.5-.9-1.3-1.2-1.1-1.2.6zM656.6 543.2c.3.5 1 .6 1.5.3 1.3-.9 1.1-1.2-.6-1.2-.8 0-1.2.4-.9.9zM539.6 555.8c-.3.5.1.9.9.9s1.2-.4.9-.9c-.3-.4-.7-.8-.9-.8-.2 0-.6.4-.9.8zM676 556c-.9.6-1 1-.3 1 .6 0 1.5-.5 1.8-1 .8-1.2.4-1.2-1.5 0zM694.5 571.1c-1.1 1.6-.1 1.9 1.3.3.7-.8.8-1.4.3-1.4s-1.3.5-1.6 1.1zM568.5 577.1c-.4.6-.4 1.3-.1 1.6.3.4.6.1.6-.6s.5-.9 1.2-.5.8.3.4-.4c-.9-1.5-1.3-1.5-2.1-.1zM81 580.8c0 1.2 1.9 2.6 2.6 1.9.2-.2-.2-1-1.1-1.7-.9-.8-1.5-.8-1.5-.2zM717 587c-.9.6-1 1-.3 1 .6 0 1.5-.5 1.8-1 .8-1.2.4-1.2-1.5 0zM82.3 588.5c0 .6.6 1.2 1.2 1.2s1.2-.6 1.2-1.2-.6-1.2-1.2-1.2-1.2.6-1.2 1.2zM82.3 604.5c0 .6.6 1.2 1.2 1.2s1.2-.6 1.2-1.2-.6-1.2-1.2-1.2-1.2.6-1.2 1.2zM742.6 606.8c-.3.5.1 1.5.8 2.1 1.1 1 1.4.9 1.2-.3-.3-2.1-1.3-2.9-2-1.8zM82.3 615.5c0 .8.4 1.5.9 1.5.4 0 .8-.4.8-.9 0-.6-.4-1.2-.8-1.5-.5-.3-.9.1-.9.9zM82.7 619.1c.7.7 1.5 1 1.8.7.3-.3-.2-.9-1.2-1.2-1.4-.6-1.5-.5-.6.5zM645.6 634.2c1 1.4 2.1 2.4 2.3 2.2.3-.3-.6-1.5-1.8-2.7l-2.4-2.2 1.9 2.7zM787.2 646.5c.4.4.3 1.4-.4 2.2-.8 1.1-.7 1.2.6.7 1.9-.7 2.1-2 .4-3-.7-.4-1-.4-.6.1zM681.6 661.5c.4.8 1.1 1.5 1.6 1.5.6 0 .5-.6-.2-1.5-.7-.8-1.4-1.5-1.6-1.5-.2 0-.1.7.2 1.5zM778.5 661.1c-.4.6-.5 1.2-.2 1.5.2.3.7-.2 1-1.1.7-1.7.1-2-.8-.4z"/></svg>